#N canvas 0 25 1440 703 12;
#X obj 34 811 Sun;
#X obj 257 894 pan;
#X obj 338 786 hsl 128 15 -1 1 0 0 empty empty empty -2 -8 0 10 -262144
-1 -1 6350 1;
#X obj 279 646 hsl 80 15 0 1 0 0 empty empty empty -2 -8 0 10 -262144
-1 -1 7900 1;
#X msg 812 285 1;
#X obj 812 307 atan;
#X obj 812 332 * 4;
#X obj 811 257 loadbang;
#X text 850 331 calculate pi;
#X obj 812 356 s pi;
#X obj 257 924 dac~;
#X obj 237 864 *~;
#X obj 269 728 calcVolPan;
#X obj 270 785 vsl 15 100 0 1 0 0 empty empty empty 0 -9 0 10 -262144
-1 -1 0 1;
#X obj 269 625 r mAngle;
#X obj 32 1102 dac~;
#X obj 32 988 *~;
#X obj 77 930 r SunVolume;
#X msg 76 905 1;
#X obj 76 884 loadbang;
#X obj 39 1034 *~;
#X obj 76 1008 rampOnOff;
#X obj 93 987 r SunOnOff;
#X obj 302 666 loadbang;
#X msg 302 687 9;
#X floatatom 349 726 5 0 0 0 - - -;
#X floatatom 302 708 5 0 0 0 - - -;
#X obj 232 578 Mercury;
#X text 10 864 dfault loudest;
#X obj 217 195 cnv 15 150 150 empty empty empty 20 12 0 14 -187641
-66577 0;
#X obj 223 224 s userX;
#X obj 291 224 s userY;
#X floatatom 223 200 5 0 0 0 - - -;
#X floatatom 292 201 5 0 0 0 - - -;
#X obj 217 354 cnv 15 200 200 empty empty empty 20 12 0 14 -233017
-66577 0;
#X obj 224 358 r userAngle;
#X obj 227 380 hsl 80 15 0 1 0 0 empty empty empty -2 -8 0 10 -262144
-1 -1 0 1;
#X floatatom 224 400 5 0 0 0 - - -;
#X floatatom 235 502 5 0 0 0 - - -;
#X floatatom 324 501 5 0 0 0 - - -;
#X obj 224 450 * -1;
#X obj 312 451 * -1;
#X obj 222 478 calcUnitVector;
#X text 331 479 unit vector;
#X obj 520 899 pan;
#X obj 608 788 hsl 128 15 -1 1 0 0 empty empty empty -2 -8 0 10 -262144
-1 -1 6350 1;
#X obj 542 651 hsl 80 15 0 1 0 0 empty empty empty -2 -8 0 10 -262144
-1 -1 7900 1;
#X obj 520 929 dac~;
#X obj 500 862 *~;
#X obj 532 733 calcVolPan;
#X obj 536 785 vsl 15 100 0 1 0 0 empty empty empty 0 -9 0 10 -262144
-1 -1 0 1;
#X obj 565 671 loadbang;
#X floatatom 565 713 5 0 0 0 - - -;
#X obj 491 582 Venus;
#X msg 565 692 14;
#X obj 349 696 r hearingRange;
#X floatatom 611 733 5 0 0 0 - - -;
#X obj 611 703 r hearingRange;
#X obj 532 630 r vAngle;
#X obj 792 904 pan;
#X obj 878 798 hsl 128 15 -1 1 0 0 empty empty empty -2 -8 0 10 -262144
-1 -1 6350 1;
#X obj 814 656 hsl 80 15 0 1 0 0 empty empty empty -2 -8 0 10 -262144
-1 -1 7900 1;
#X obj 792 934 dac~;
#X obj 755 873 *~;
#X obj 804 738 calcVolPan;
#X obj 810 794 vsl 15 100 0 1 0 0 empty empty empty 0 -9 0 10 -262144
-1 -1 0 1;
#X obj 837 676 loadbang;
#X floatatom 837 718 5 0 0 0 - - -;
#X floatatom 883 738 5 0 0 0 - - -;
#X obj 883 708 r hearingRange;
#X obj 752 576 Earth;
#X obj 804 634 r eAngle;
#X msg 837 697 18;
#X obj 224 272 s hearingRange;
#X floatatom 223 250 5 0 0 0 - - -;
#X obj 226 297 hsl 100 15 0.05 5 0 0 empty empty empty -2 -8 0 10 -262144
-1 -1 0 1;
#X obj 223 317 s orbitSpeed;
#X floatatom 315 317 5 0 0 0 - - -;
#X obj 1083 913 pan;
#X obj 1170 801 hsl 128 15 -1 1 0 0 empty empty empty -2 -8 0 10 -262144
-1 -1 6350 1;
#X obj 1105 665 hsl 80 15 0 1 0 0 empty empty empty -2 -8 0 10 -262144
-1 -1 7900 1;
#X obj 1083 943 dac~;
#X obj 1046 882 *~;
#X obj 1095 747 calcVolPan;
#X obj 1095 801 vsl 15 100 0 1 0 0 empty empty empty 0 -9 0 10 -262144
-1 -1 0 1;
#X obj 1128 685 loadbang;
#X floatatom 1175 745 5 0 0 0 - - -;
#X floatatom 1128 727 5 0 0 0 - - -;
#X obj 296 1288 pan;
#X obj 380 1175 hsl 128 15 -1 1 0 0 empty empty empty -2 -8 0 10 -262144
-1 -1 6350 1;
#X obj 318 1040 hsl 80 15 0 1 0 0 empty empty empty -2 -8 0 10 -262144
-1 -1 7900 1;
#X obj 296 1318 dac~;
#X obj 259 1257 *~;
#X obj 308 1122 calcVolPan;
#X obj 322 1172 vsl 15 100 0 1 0 0 empty empty empty 0 -9 0 10 -262144
-1 -1 0 1;
#X obj 341 1060 loadbang;
#X floatatom 341 1102 5 0 0 0 - - -;
#X obj 1175 715 r hearingRange;
#X floatatom 387 1122 5 0 0 0 - - -;
#X obj 387 1092 r hearingRange;
#X obj 555 1306 pan;
#X obj 642 1193 hsl 128 15 -1 1 0 0 empty empty empty -2 -8 0 10 -262144
-1 -1 6350 1;
#X obj 577 1058 hsl 80 15 0 1 0 0 empty empty empty -2 -8 0 10 -262144
-1 -1 7900 1;
#X obj 555 1336 dac~;
#X obj 518 1275 *~;
#X obj 567 1140 calcVolPan;
#X obj 590 1195 vsl 15 100 0 1 0 0 empty empty empty 0 -9 0 10 -262144
-1 -1 0 1;
#X obj 600 1078 loadbang;
#X floatatom 600 1120 5 0 0 0 - - -;
#X floatatom 646 1140 5 0 0 0 - - -;
#X obj 646 1110 r hearingRange;
#X obj 1043 593 Mars;
#X obj 1096 644 r maAngle;
#X obj 246 974 Jupiter;
#X obj 519 983 Saturn;
#X msg 1128 706 26;
#X obj 861 1303 pan;
#X obj 883 1055 hsl 80 15 0 1 0 0 empty empty empty -2 -8 0 10 -262144
-1 -1 7900 1;
#X obj 861 1333 dac~;
#X obj 824 1272 *~;
#X obj 873 1137 calcVolPan;
#X obj 906 1075 loadbang;
#X floatatom 953 1135 5 0 0 0 - - -;
#X floatatom 906 1117 5 0 0 0 - - -;
#X obj 1124 1308 pan;
#X obj 1146 1060 hsl 80 15 0 1 0 0 empty empty empty -2 -8 0 10 -262144
-1 -1 7900 1;
#X obj 1124 1338 dac~;
#X obj 1087 1277 *~;
#X obj 1136 1142 calcVolPan;
#X obj 1169 1080 loadbang;
#X floatatom 1169 1122 5 0 0 0 - - -;
#X obj 953 1105 r hearingRange;
#X floatatom 1215 1142 5 0 0 0 - - -;
#X obj 1215 1112 r hearingRange;
#X obj 1396 1313 pan;
#X obj 1418 1065 hsl 80 15 0 1 0 0 empty empty empty -2 -8 0 10 -262144
-1 -1 7900 1;
#X obj 1396 1343 dac~;
#X obj 1359 1282 *~;
#X obj 1408 1147 calcVolPan;
#X obj 1441 1085 loadbang;
#X floatatom 1441 1127 5 0 0 0 - - -;
#X floatatom 1487 1147 5 0 0 0 - - -;
#X obj 1487 1117 r hearingRange;
#X obj 818 978 Uranus;
#X obj 1073 983 Neptune;
#X obj 1408 1043 r pAngle;
#X obj 1136 1039 r nAngle;
#X obj 874 1034 r uAngle;
#X obj 305 250 loadbang;
#X obj 422 434 cnv 15 700 120 empty empty empty 20 12 0 14 -158823
-66577 0;
#X obj 430 470 tgl 15 0 empty empty empty 17 7 0 10 -262144 -1 -1 1
1;
#X obj 527 449 tgl 15 0 empty empty empty 17 7 0 10 -262144 -1 -1 1
1;
#X obj 527 469 s MercuryOnOff;
#X obj 645 448 tgl 15 0 empty empty empty 17 7 0 10 -262144 -1 -1 1
1;
#X obj 749 448 tgl 15 0 empty empty empty 17 7 0 10 -262144 -1 -1 1
1;
#X obj 854 446 tgl 15 0 empty empty empty 17 7 0 10 -262144 -1 -1 1
1;
#X obj 572 502 tgl 15 0 empty empty empty 17 7 0 10 -262144 -1 -1 1
1;
#X obj 688 502 tgl 15 0 empty empty empty 17 7 0 10 -262144 -1 -1 1
1;
#X obj 797 502 tgl 15 0 empty empty empty 17 7 0 10 -262144 -1 -1 1
1;
#X obj 909 502 tgl 15 0 empty empty empty 17 7 0 10 -262144 -1 -1 1
1;
#X obj 1025 503 tgl 15 0 empty empty empty 17 7 0 10 -262144 -1 -1
1 1;
#X obj 430 490 s SunOnOff;
#X obj 645 468 s VenusOnOff;
#X obj 749 467 s EarthOnOff;
#X obj 572 522 s JupiterOnOff;
#X obj 854 466 s MarsOnOff;
#X obj 688 522 s SaturnOnOff;
#X obj 798 522 s UranusOnOff;
#X obj 909 522 s NeptuneOnOff;
#X obj 1050 498 loadbang;
#X obj 825 499 loadbang;
#X obj 931 499 loadbang;
#X obj 712 498 loadbang;
#X obj 597 497 loadbang;
#X obj 877 441 loadbang;
#X obj 770 445 loadbang;
#X obj 668 444 loadbang;
#X obj 552 443 loadbang;
#X obj 450 467 loadbang;
#X obj 1363 617 AsteroidBelt;
#X obj 1410 757 dac~;
#X obj 954 446 tgl 15 0 empty empty empty 17 7 0 10 -262144 -1 -1 1
1;
#X obj 979 441 loadbang;
#X obj 954 466 s AsteroidOnOff;
#N canvas 0 25 450 300 sample 0;
#X obj 188 75 inlet~;
#X obj 320 77 loadbang;
#X obj 320 105 tgl 15 0 empty empty empty 17 7 0 10 -262144 -1 -1 1
1;
#X obj 320 125 metro 20;
#X obj 223 179 snapshot~;
#X obj 223 203 outlet;
#X connect 0 0 4 0;
#X connect 1 0 2 0;
#X connect 2 0 3 0;
#X connect 3 0 4 0;
#X connect 4 0 5 0;
#X restore 377 1152 pd sample;
#N canvas 0 25 450 300 sample 0;
#X obj 188 75 inlet~;
#X obj 320 77 loadbang;
#X obj 320 105 tgl 15 0 empty empty empty 17 7 0 10 -262144 -1 -1 1
1;
#X obj 320 125 metro 20;
#X obj 223 179 snapshot~;
#X obj 223 203 outlet;
#X connect 0 0 4 0;
#X connect 1 0 2 0;
#X connect 2 0 3 0;
#X connect 3 0 4 0;
#X connect 4 0 5 0;
#X restore 308 1146 pd sample;
#N canvas 0 25 450 300 sample 0;
#X obj 188 75 inlet~;
#X obj 320 77 loadbang;
#X obj 320 105 tgl 15 0 empty empty empty 17 7 0 10 -262144 -1 -1 1
1;
#X obj 320 125 metro 20;
#X obj 223 179 snapshot~;
#X obj 223 203 outlet;
#X connect 0 0 4 0;
#X connect 1 0 2 0;
#X connect 2 0 3 0;
#X connect 3 0 4 0;
#X connect 4 0 5 0;
#X restore 639 1170 pd sample;
#N canvas 0 25 450 300 sample 0;
#X obj 188 75 inlet~;
#X obj 320 77 loadbang;
#X obj 320 105 tgl 15 0 empty empty empty 17 7 0 10 -262144 -1 -1 1
1;
#X obj 320 125 metro 20;
#X obj 223 179 snapshot~;
#X obj 223 203 outlet;
#X connect 0 0 4 0;
#X connect 1 0 2 0;
#X connect 2 0 3 0;
#X connect 3 0 4 0;
#X connect 4 0 5 0;
#X restore 576 1167 pd sample;
#X msg 341 1081 79;
#X msg 600 1099 152;
#X msg 906 1096 312;
#X msg 1169 1101 456;
#X msg 1441 1106 509;
#N canvas 0 25 450 300 sample 0;
#X obj 188 75 inlet~;
#X obj 320 77 loadbang;
#X obj 320 105 tgl 15 0 empty empty empty 17 7 0 10 -262144 -1 -1 1
1;
#X obj 320 125 metro 20;
#X obj 223 179 snapshot~;
#X obj 223 203 outlet;
#X connect 0 0 4 0;
#X connect 1 0 2 0;
#X connect 2 0 3 0;
#X connect 3 0 4 0;
#X connect 4 0 5 0;
#X restore 605 766 pd sample;
#N canvas 0 25 450 300 sample 0;
#X obj 188 75 inlet~;
#X obj 320 77 loadbang;
#X obj 320 105 tgl 15 0 empty empty empty 17 7 0 10 -262144 -1 -1 1
1;
#X obj 320 125 metro 20;
#X obj 223 179 snapshot~;
#X obj 223 203 outlet;
#X connect 0 0 4 0;
#X connect 1 0 2 0;
#X connect 2 0 3 0;
#X connect 3 0 4 0;
#X connect 4 0 5 0;
#X restore 536 760 pd sample;
#N canvas 0 25 450 300 sample 0;
#X obj 188 75 inlet~;
#X obj 320 77 loadbang;
#X obj 320 105 tgl 15 0 empty empty empty 17 7 0 10 -262144 -1 -1 1
1;
#X obj 320 125 metro 20;
#X obj 223 179 snapshot~;
#X obj 223 203 outlet;
#X connect 0 0 4 0;
#X connect 1 0 2 0;
#X connect 2 0 3 0;
#X connect 3 0 4 0;
#X connect 4 0 5 0;
#X restore 337 763 pd sample;
#N canvas 0 25 450 300 sample 0;
#X obj 188 75 inlet~;
#X obj 320 77 loadbang;
#X obj 320 105 tgl 15 0 empty empty empty 17 7 0 10 -262144 -1 -1 1
1;
#X obj 320 125 metro 20;
#X obj 223 179 snapshot~;
#X obj 223 203 outlet;
#X connect 0 0 4 0;
#X connect 1 0 2 0;
#X connect 2 0 3 0;
#X connect 3 0 4 0;
#X connect 4 0 5 0;
#X restore 268 757 pd sample;
#N canvas 0 25 450 300 sample 0;
#X obj 188 75 inlet~;
#X obj 320 77 loadbang;
#X obj 320 105 tgl 15 0 empty empty empty 17 7 0 10 -262144 -1 -1 1
1;
#X obj 320 125 metro 20;
#X obj 223 179 snapshot~;
#X obj 223 203 outlet;
#X connect 0 0 4 0;
#X connect 1 0 2 0;
#X connect 2 0 3 0;
#X connect 3 0 4 0;
#X connect 4 0 5 0;
#X restore 875 775 pd sample;
#N canvas 0 25 450 300 sample 0;
#X obj 188 75 inlet~;
#X obj 320 77 loadbang;
#X obj 320 105 tgl 15 0 empty empty empty 17 7 0 10 -262144 -1 -1 1
1;
#X obj 320 125 metro 20;
#X obj 223 179 snapshot~;
#X obj 223 203 outlet;
#X connect 0 0 4 0;
#X connect 1 0 2 0;
#X connect 2 0 3 0;
#X connect 3 0 4 0;
#X connect 4 0 5 0;
#X restore 806 765 pd sample;
#N canvas 0 25 450 300 sample 0;
#X obj 188 75 inlet~;
#X obj 320 77 loadbang;
#X obj 320 105 tgl 15 0 empty empty empty 17 7 0 10 -262144 -1 -1 1
1;
#X obj 320 125 metro 20;
#X obj 223 179 snapshot~;
#X obj 223 203 outlet;
#X connect 0 0 4 0;
#X connect 1 0 2 0;
#X connect 2 0 3 0;
#X connect 3 0 4 0;
#X connect 4 0 5 0;
#X restore 1167 778 pd sample;
#N canvas 0 25 450 300 sample 0;
#X obj 188 75 inlet~;
#X obj 320 77 loadbang;
#X obj 320 105 tgl 15 0 empty empty empty 17 7 0 10 -262144 -1 -1 1
1;
#X obj 320 125 metro 20;
#X obj 223 179 snapshot~;
#X obj 223 203 outlet;
#X connect 0 0 4 0;
#X connect 1 0 2 0;
#X connect 2 0 3 0;
#X connect 3 0 4 0;
#X connect 4 0 5 0;
#X restore 1098 772 pd sample;
#X obj 427 193 cnv 15 100 200 empty empty empty 20 12 0 14 -262130
-66577 0;
#X text 435 286 Asteroid 51;
#X text 435 354 Neptune 456;
#X text 428 193 Distance (m);
#X text 435 218 Mercury___9;
#X text 435 235 Venus____14;
#X text 435 252 Earth____18;
#X text 435 269 Mars_____26;
#X text 435 303 Jupiter__79;
#X text 435 337 Uranus__312;
#X text 435 371 Pluto___509;
#X obj 957 1187 hsl 128 15 -1 1 0 0 empty empty empty -2 -8 0 10 -262144
-1 -1 6350 1;
#X obj 902 1199 vsl 15 100 0 1 0 0 empty empty empty 0 -9 0 10 -262144
-1 -1 0 1;
#N canvas 0 25 450 300 sample 0;
#X obj 188 75 inlet~;
#X obj 320 77 loadbang;
#X obj 320 105 tgl 15 0 empty empty empty 17 7 0 10 -262144 -1 -1 1
1;
#X obj 320 125 metro 20;
#X obj 223 179 snapshot~;
#X obj 223 203 outlet;
#X connect 0 0 4 0;
#X connect 1 0 2 0;
#X connect 2 0 3 0;
#X connect 3 0 4 0;
#X connect 4 0 5 0;
#X restore 954 1164 pd sample;
#N canvas 0 25 450 300 sample 0;
#X obj 188 75 inlet~;
#X obj 320 77 loadbang;
#X obj 320 105 tgl 15 0 empty empty empty 17 7 0 10 -262144 -1 -1 1
1;
#X obj 320 125 metro 20;
#X obj 223 179 snapshot~;
#X obj 223 203 outlet;
#X connect 0 0 4 0;
#X connect 1 0 2 0;
#X connect 2 0 3 0;
#X connect 3 0 4 0;
#X connect 4 0 5 0;
#X restore 885 1158 pd sample;
#X obj 1230 1193 hsl 128 15 -1 1 0 0 empty empty empty -2 -8 0 10 -262144
-1 -1 6350 1;
#X obj 1157 1202 vsl 15 100 0 1 0 0 empty empty empty 0 -9 0 10 -262144
-1 -1 0 1;
#N canvas 0 25 450 300 sample 0;
#X obj 188 75 inlet~;
#X obj 320 77 loadbang;
#X obj 320 105 tgl 15 0 empty empty empty 17 7 0 10 -262144 -1 -1 1
1;
#X obj 320 125 metro 20;
#X obj 223 179 snapshot~;
#X obj 223 203 outlet;
#X connect 0 0 4 0;
#X connect 1 0 2 0;
#X connect 2 0 3 0;
#X connect 3 0 4 0;
#X connect 4 0 5 0;
#X restore 1227 1170 pd sample;
#N canvas 0 25 450 300 sample 0;
#X obj 188 75 inlet~;
#X obj 320 77 loadbang;
#X obj 320 105 tgl 15 0 empty empty empty 17 7 0 10 -262144 -1 -1 1
1;
#X obj 320 125 metro 20;
#X obj 223 179 snapshot~;
#X obj 223 203 outlet;
#X connect 0 0 4 0;
#X connect 1 0 2 0;
#X connect 2 0 3 0;
#X connect 3 0 4 0;
#X connect 4 0 5 0;
#X restore 1158 1164 pd sample;
#X obj 1508 1199 hsl 128 15 -1 1 0 0 empty empty empty -2 -8 0 10 -262144
-1 -1 6350 1;
#X obj 1435 1208 vsl 15 100 0 1 0 0 empty empty empty 0 -9 0 10 -262144
-1 -1 0 1;
#N canvas 0 25 450 300 sample 0;
#X obj 188 75 inlet~;
#X obj 320 77 loadbang;
#X obj 320 105 tgl 15 0 empty empty empty 17 7 0 10 -262144 -1 -1 1
1;
#X obj 320 125 metro 20;
#X obj 223 179 snapshot~;
#X obj 223 203 outlet;
#X connect 0 0 4 0;
#X connect 1 0 2 0;
#X connect 2 0 3 0;
#X connect 3 0 4 0;
#X connect 4 0 5 0;
#X restore 1505 1176 pd sample;
#N canvas 0 25 450 300 sample 0;
#X obj 188 75 inlet~;
#X obj 320 77 loadbang;
#X obj 320 105 tgl 15 0 empty empty empty 17 7 0 10 -262144 -1 -1 1
1;
#X obj 320 125 metro 20;
#X obj 223 179 snapshot~;
#X obj 223 203 outlet;
#X connect 0 0 4 0;
#X connect 1 0 2 0;
#X connect 2 0 3 0;
#X connect 3 0 4 0;
#X connect 4 0 5 0;
#X restore 1436 1170 pd sample;
#X obj 308 1019 r jAngle;
#X obj 567 1036 r sAngle;
#X obj 224 426 r userY;
#X obj 312 427 r userX;
#X obj 224 525 s userUnitY;
#X obj 318 527 s userUnitX;
#X obj 1403 721 *~;
#N canvas 1563 205 1440 847 calcAsteroidVolume 0;
#X obj 262 335 -;
#X obj 262 365 abs;
#X obj 261 462 -;
#X obj 262 399 t b f;
#X msg 280 313 51;
#X obj 262 509 clip 0 1;
#X obj 280 290 loadbang;
#X text 307 429 distance you can hear;
#X obj 259 191 expr sqrt(pow($f1 \, 2) + pow($f2 \, 2));
#X obj 416 145 abs;
#X obj 260 137 abs;
#X obj 260 114 r userY;
#X obj 416 121 r userX;
#X obj 416 169 t b f;
#X obj 260 161 f;
#X obj 261 545 outlet;
#X floatatom 183 215 5 0 0 0 - - -;
#X text 274 213 dist from sun;
#X text 318 313 center of asteroidbelt;
#X text 310 476 to increase range where it is maxed out;
#X msg 261 429 15;
#X obj 262 485 / 5;
#X connect 0 0 1 0;
#X connect 1 0 3 0;
#X connect 2 0 21 0;
#X connect 3 0 20 0;
#X connect 3 1 2 1;
#X connect 4 0 0 1;
#X connect 5 0 15 0;
#X connect 6 0 4 0;
#X connect 8 0 0 0;
#X connect 8 0 16 0;
#X connect 9 0 13 0;
#X connect 10 0 14 0;
#X connect 11 0 10 0;
#X connect 12 0 9 0;
#X connect 13 0 14 0;
#X connect 13 1 8 1;
#X connect 14 0 8 0;
#X connect 20 0 2 0;
#X connect 21 0 5 0;
#X restore 1533 655 pd calcAsteroidVolume;
#N canvas 0 25 1356 657 indB 0;
#X obj 335 410 line~;
#X obj 335 356 dbtorms;
#X obj 353 319 spigot;
#X msg 353 294 0;
#X obj 323 291 ==;
#X msg 341 266 0;
#X obj 284 322 spigot;
#X obj 374 138 * 40;
#X obj 374 162 + 60;
#X obj 379 232 <= 60;
#X obj 375 194 t f f;
#X obj 355 76 inlet;
#X text 436 73 from 0:1;
#X text 434 137 scale value (goes to 60-100 dB);
#X obj 335 434 outlet~;
#X msg 335 385 \$1 1000;
#X connect 0 0 14 0;
#X connect 1 0 15 0;
#X connect 2 0 1 0;
#X connect 3 0 2 0;
#X connect 4 0 6 1;
#X connect 5 0 4 1;
#X connect 6 0 1 0;
#X connect 7 0 8 0;
#X connect 8 0 10 0;
#X connect 9 0 2 1;
#X connect 9 0 3 0;
#X connect 9 0 5 0;
#X connect 9 0 4 0;
#X connect 10 0 6 0;
#X connect 10 1 9 0;
#X connect 11 0 7 0;
#X connect 15 0 0 0;
#X restore 1533 683 pd indB;
#X text 435 320 Saturn _152;
#X obj 77 954 indB;
#X floatatom 1075 693 5 0 0 0 - - -;
#X floatatom 1167 821 5 0 0 0 - - -;
#X floatatom 1130 902 5 0 0 0 - - -;
#X floatatom 243 678 5 0 0 0 - - -;
#X obj 1437 722 *~;
#X text 1303 596 To hear \, make the user ~51 m from the sun (e.g.
userX=51 \, userY=0);
#X obj 1444 952 dac~;
#X obj 1437 916 *~;
#N canvas 0 25 1356 657 indB 0;
#X obj 335 410 line~;
#X obj 335 356 dbtorms;
#X obj 353 319 spigot;
#X msg 353 294 0;
#X obj 323 291 ==;
#X msg 341 266 0;
#X obj 284 322 spigot;
#X obj 374 138 * 40;
#X obj 374 162 + 60;
#X obj 379 232 <= 60;
#X obj 375 194 t f f;
#X obj 355 76 inlet;
#X text 436 73 from 0:1;
#X text 434 137 scale value (goes to 60-100 dB);
#X obj 335 434 outlet~;
#X msg 335 385 \$1 1000;
#X connect 0 0 14 0;
#X connect 1 0 15 0;
#X connect 2 0 1 0;
#X connect 3 0 2 0;
#X connect 4 0 6 1;
#X connect 5 0 4 1;
#X connect 6 0 1 0;
#X connect 7 0 8 0;
#X connect 8 0 10 0;
#X connect 9 0 2 1;
#X connect 9 0 3 0;
#X connect 9 0 5 0;
#X connect 9 0 4 0;
#X connect 10 0 6 0;
#X connect 10 1 9 0;
#X connect 11 0 7 0;
#X connect 15 0 0 0;
#X restore 1552 885 pd indB;
#X obj 1471 917 *~;
#X obj 1130 451 tgl 15 0 empty empty empty 17 7 0 10 -262144 -1 -1
1 1;
#X obj 1155 446 loadbang;
#X obj 1130 471 s KuiperOnOff;
#X obj 1416 799 KuiperBelt;
#X floatatom 1615 884 5 0 0 0 - - -;
#X text 1335 776 To hear \, make the user ~550 m from the sun (e.g.
userX=550 \, userY=0);
#X floatatom 1600 684 5 0 0 0 - - -;
#X obj 1286 360 Trojans;
#X obj 1134 501 tgl 15 0 empty empty empty 17 7 0 10 -262144 -1 -1
1 1;
#X obj 1159 496 loadbang;
#X obj 1134 521 s TrojansOnOff;
#X obj 1389 229 r jAngle;
#X obj 1392 288 hsl 80 15 0 1 0 0 empty empty empty -2 -8 0 10 -262144
-1 -1 6583 1;
#X obj 1663 284 hsl 80 15 0 1 0 0 empty empty empty -2 -8 0 10 -262144
-1 -1 1317 1;
#X obj 1392 212 hsl 80 15 0 1 0 0 empty empty empty -2 -8 0 10 -262144
-1 -1 7900 1;
#N canvas 0 25 1440 511 trojanAngles 0;
#X obj 418 113 + 0.166667;
#X obj 267 124 - 0.166667;
#X obj 378 133 > 1;
#X floatatom 451 134 5 0 0 0 - - -;
#X floatatom 297 152 5 0 0 0 - - -;
#X obj 408 178 spigot;
#X obj 408 202 - 1;
#X obj 460 178 spigot;
#X obj 378 157 == 0;
#X obj 267 154 < 0;
#X obj 228 177 spigot;
#X obj 280 179 == 0;
#X obj 281 206 spigot;
#X obj 228 201 + 1;
#X obj 262 236 outlet;
#X obj 410 229 outlet;
#X obj 381 30 inlet;
#X connect 0 0 2 0;
#X connect 0 0 3 0;
#X connect 0 0 5 0;
#X connect 0 0 7 0;
#X connect 1 0 4 0;
#X connect 1 0 9 0;
#X connect 1 0 10 0;
#X connect 1 0 12 0;
#X connect 2 0 5 1;
#X connect 2 0 8 0;
#X connect 5 0 6 0;
#X connect 6 0 15 0;
#X connect 7 0 15 0;
#X connect 8 0 7 1;
#X connect 9 0 10 1;
#X connect 9 0 11 0;
#X connect 10 0 13 0;
#X connect 11 0 12 1;
#X connect 12 0 14 0;
#X connect 13 0 14 0;
#X connect 16 0 0 0;
#X connect 16 0 1 0;
#X restore 1389 257 pd trojanAngles;
#X obj 1403 529 pan;
#X obj 1461 421 hsl 128 15 -1 1 0 0 empty empty empty -2 -8 0 10 -262144
-1 -1 6350 1;
#X obj 1403 559 dac~;
#X obj 1340 503 *~;
#X obj 1389 368 calcVolPan;
#X obj 1403 418 vsl 15 100 0 1 0 0 empty empty empty 0 -9 0 10 -262144
-1 -1 0 1;
#X obj 1424 315 loadbang;
#N canvas 0 25 450 300 sample 0;
#X obj 188 75 inlet~;
#X obj 320 77 loadbang;
#X obj 320 105 tgl 15 0 empty empty empty 17 7 0 10 -262144 -1 -1 1
1;
#X obj 320 125 metro 20;
#X obj 223 179 snapshot~;
#X obj 223 203 outlet;
#X connect 0 0 4 0;
#X connect 1 0 2 0;
#X connect 2 0 3 0;
#X connect 3 0 4 0;
#X connect 4 0 5 0;
#X restore 1458 398 pd sample;
#N canvas 0 25 450 300 sample 0;
#X obj 188 75 inlet~;
#X obj 320 77 loadbang;
#X obj 320 105 tgl 15 0 empty empty empty 17 7 0 10 -262144 -1 -1 1
1;
#X obj 320 125 metro 20;
#X obj 223 179 snapshot~;
#X obj 223 203 outlet;
#X connect 0 0 4 0;
#X connect 1 0 2 0;
#X connect 2 0 3 0;
#X connect 3 0 4 0;
#X connect 4 0 5 0;
#X restore 1389 392 pd sample;
#X msg 1422 339 79;
#X obj 1557 346 Trojans;
#X obj 1674 527 pan;
#X obj 1732 419 hsl 128 15 -1 1 0 0 empty empty empty -2 -8 0 10 -262144
-1 -1 6350 1;
#X obj 1674 557 dac~;
#X obj 1611 501 *~;
#X obj 1660 366 calcVolPan;
#X obj 1674 416 vsl 15 100 0 1 0 0 empty empty empty 0 -9 0 10 -262144
-1 -1 0 1;
#X obj 1695 313 loadbang;
#N canvas 0 25 450 300 sample 0;
#X obj 188 75 inlet~;
#X obj 320 77 loadbang;
#X obj 320 105 tgl 15 0 empty empty empty 17 7 0 10 -262144 -1 -1 1
1;
#X obj 320 125 metro 20;
#X obj 223 179 snapshot~;
#X obj 223 203 outlet;
#X connect 0 0 4 0;
#X connect 1 0 2 0;
#X connect 2 0 3 0;
#X connect 3 0 4 0;
#X connect 4 0 5 0;
#X restore 1729 396 pd sample;
#N canvas 0 25 450 300 sample 0;
#X obj 188 75 inlet~;
#X obj 320 77 loadbang;
#X obj 320 105 tgl 15 0 empty empty empty 17 7 0 10 -262144 -1 -1 1
1;
#X obj 320 125 metro 20;
#X obj 223 179 snapshot~;
#X obj 223 203 outlet;
#X connect 0 0 4 0;
#X connect 1 0 2 0;
#X connect 2 0 3 0;
#X connect 3 0 4 0;
#X connect 4 0 5 0;
#X restore 1660 390 pd sample;
#X msg 1693 337 79;
#X msg 1476 339 50;
#X msg 1745 335 50;
#N canvas 616 86 546 644 calcKuiperVolume 1;
#X obj 262 335 -;
#X obj 262 365 abs;
#X obj 261 462 -;
#X obj 262 399 t b f;
#X obj 262 509 clip 0 1;
#X obj 280 290 loadbang;
#X text 309 430 distance you can hear;
#X obj 259 191 expr sqrt(pow($f1 \, 2) + pow($f2 \, 2));
#X obj 416 145 abs;
#X obj 260 137 abs;
#X obj 260 114 r userY;
#X obj 416 121 r userX;
#X obj 416 169 t b f;
#X obj 260 161 f;
#X obj 261 545 outlet;
#X floatatom 183 215 5 0 0 0 - - -;
#X text 274 213 dist from sun;
#X text 318 313 center of asteroidbelt;
#X floatatom 204 500 5 0 0 0 - - -;
#X msg 281 313 700;
#X obj 261 485 / 100;
#X msg 262 429 200;
#X connect 0 0 1 0;
#X connect 1 0 3 0;
#X connect 2 0 20 0;
#X connect 3 0 21 0;
#X connect 3 1 2 1;
#X connect 4 0 14 0;
#X connect 4 0 18 0;
#X connect 5 0 19 0;
#X connect 7 0 0 0;
#X connect 7 0 15 0;
#X connect 8 0 12 0;
#X connect 9 0 13 0;
#X connect 10 0 9 0;
#X connect 11 0 8 0;
#X connect 12 0 13 0;
#X connect 12 1 7 1;
#X connect 13 0 7 0;
#X connect 19 0 0 1;
#X connect 20 0 4 0;
#X connect 21 0 2 0;
#X restore 1552 856 pd calcKuiperVolume;
#X text 1207 58 orbit Speed (Earth years per second);
#X obj 1270 301 s orbitScaler;
#X obj 1271 251 r orbitSpeed;
#N canvas 0 25 1440 798 calcScaler 0;
#X obj 167 183 max;
#X msg 167 161 0.05;
#X floatatom 200 183 5 0 0 0 - - -;
#X obj 166 136 loadbang;
#X obj 174 327 /;
#X msg 165 304 1;
#X obj 165 278 t b f;
#X floatatom 212 326 5 0 0 0 - - -;
#X floatatom 105 129 5 0 0 0 - - -;
#X obj 169 108 inlet;
#X obj 158 458 outlet;
#X floatatom 193 400 5 0 0 0 - - -;
#X obj 151 401 min;
#X obj 174 351 t b f;
#X obj 167 207 * 2;
#X msg 131 369 1;
#X connect 0 0 2 0;
#X connect 0 0 14 0;
#X connect 1 0 0 0;
#X connect 3 0 1 0;
#X connect 4 0 7 0;
#X connect 4 0 13 0;
#X connect 5 0 4 0;
#X connect 6 0 5 0;
#X connect 6 1 4 1;
#X connect 8 0 0 1;
#X connect 8 0 1 0;
#X connect 9 0 0 1;
#X connect 9 0 1 0;
#X connect 12 0 10 0;
#X connect 12 0 11 0;
#X connect 13 0 15 0;
#X connect 13 1 12 1;
#X connect 14 0 6 0;
#X connect 15 0 12 0;
#X restore 1270 277 pd calcScaler;
#X obj 1025 523 s PlutoOnOff;
#X floatatom 563 337 5 0 0 0 - - -;
#X floatatom 669 340 5 0 0 0 - - -;
#X obj 562 362 s userHeadingX;
#X obj 669 362 s userHeadingY;
#X obj 564 312 polarToCart;
#X obj 565 264 hsl 100 15 0 1 0 0 empty empty empty -2 -8 0 10 -262144
-1 -1 2475 1;
#X floatatom 563 284 5 0 0 0 - - -;
#X msg 680 263 1;
#X obj 680 213 loadbang;
#X obj 563 186 r heading;
#X obj 563 210 / 360;
#X obj 781 202 tgl 15 0 empty empty empty 17 7 0 10 -262144 -1 -1 1
1;
#X obj 781 222 s useHeading;
#X obj 781 177 loadbang;
#X msg 569 241 0.25;
#X obj 1361 991 Pluto;
#N canvas 2506 375 631 370 initSequence 0;
#X obj 193 41 tgl 15 0 empty empty empty 17 7 0 10 -262144 -1 -1 0
1;
#X obj 193 153 + 1;
#X obj 157 150 f;
#X msg 157 104 -1;
#X obj 157 208 clip 0 14;
#X obj 227 138 sel 1;
#X msg 227 162 0;
#X obj 227 114 == 15;
#X floatatom 157 259 5 0 0 0 - - -;
#X obj 121 -52 r initSequence;
#X obj 121 -28 sel 1;
#X obj 122 7 t f b;
#X obj 312 66 s initSequenceActive;
#X msg 123 30 1;
#X obj 157 282 s initSequenceIndex;
#X obj 194 71 metro 700;
#X text 241 208 counter goes from 0 - 14;
#X connect 0 0 12 0;
#X connect 0 0 15 0;
#X connect 1 0 2 1;
#X connect 2 0 1 0;
#X connect 2 0 4 0;
#X connect 2 0 7 0;
#X connect 3 0 2 0;
#X connect 4 0 8 0;
#X connect 5 0 6 0;
#X connect 6 0 0 0;
#X connect 7 0 5 0;
#X connect 8 0 14 0;
#X connect 9 0 10 0;
#X connect 10 0 11 0;
#X connect 11 0 13 0;
#X connect 11 1 3 0;
#X connect 13 0 0 0;
#X connect 15 0 2 0;
#X restore 229 52 pd initSequence;
#X msg 229 6 1;
#X obj 229 30 s initSequence;
#X obj 30 841 initControl 0;
#X obj 232 602 initControl 1;
#X obj 489 608 initControl 2;
#X obj 752 600 initControl 3;
#X obj 1043 617 initControl 4;
#X obj 1286 385 initControl 6;
#X obj 1557 368 initControl 6;
#X obj 246 998 initControl 6;
#X obj 1369 644 initControl 5;
#X obj 1429 671 initControl 5;
#X obj 519 1007 initControl 8;
#X obj 818 1002 initControl 9;
#X obj 1073 1007 initControl 10;
#X obj 1361 1015 initControl 11;
#X obj 1389 824 initControl 12;
#X obj 1451 849 initControl 12;
#X obj 228 140 s startSystem;
#X obj 228 113 tgl 15 0 empty empty empty 17 7 0 10 -262144 -1 -1 1
1;
#X text 231 -19 v-Click here to ply intro sequence;
#X text 253 110 <- click here to hear location based sounds;
#X msg 265 248 70;
#X obj 585 67 tgl 15 0 empty empty empty 17 7 0 10 -262144 -1 -1 0
1;
#X obj 585 87 s waveformSelect;
#X obj 584 111 noise~;
#X obj 584 135 s~ n;
#X obj 584 18 loadbang;
#X msg 584 42 0;
#N canvas 0 25 1388 847 calculateOrbits 0;
#X msg 370 126 88;
#X msg 452 126 225;
#X msg 533 126 365;
#X msg 622 126 687;
#X msg 1133 126 4333;
#X msg 1226 126 10759;
#X msg 1330 126 20687;
#X msg 1436 126 60190;
#X msg 1538 126 90560;
#X text 572 36 https://www.universetoday.com/14344/how-long-is-a-year-on-pluto/
;
#X text 573 16 https://spaceplace.nasa.gov/years-on-other-planets/en/
;
#X obj 533 157 / 365;
#X obj 370 157 / 365;
#X obj 452 157 / 365;
#X obj 1226 157 / 365;
#X obj 622 157 / 365;
#X obj 1133 157 / 365;
#X obj 1538 157 / 365;
#X obj 1330 157 / 365;
#X obj 1436 157 / 365;
#X floatatom 370 188 5 0 0 0 - - -;
#X floatatom 452 188 5 0 0 0 - - -;
#X floatatom 533 188 5 0 0 0 - - -;
#X floatatom 622 188 5 0 0 0 - - -;
#X floatatom 1133 188 5 0 0 0 - - -;
#X floatatom 1226 188 5 0 0 0 - - -;
#X floatatom 1330 188 5 0 0 0 - - -;
#X floatatom 1436 188 5 0 0 0 - - -;
#X floatatom 1538 188 5 0 0 0 - - -;
#X obj 531 384 phasor~;
#X obj 450 384 phasor~;
#X obj 368 382 phasor~;
#X obj 619 386 phasor~;
#X obj 368 424 snapshot~;
#X obj 300 375 tgl 15 0 empty empty empty 17 7 0 10 -262144 -1 -1 1
1;
#X obj 450 425 snapshot~;
#X floatatom 367 612 5 0 0 0 - - -;
#X floatatom 450 611 5 0 0 0 - - -;
#X obj 537 426 snapshot~;
#X floatatom 537 612 5 0 0 0 - - -;
#X obj 619 427 snapshot~;
#X floatatom 619 612 5 0 0 0 - - -;
#X msg 370 235 1;
#X obj 375 261 /;
#X obj 370 211 t b f;
#X floatatom 375 287 5 0 0 0 - - -;
#X msg 451 237 1;
#X obj 456 263 /;
#X obj 451 213 t b f;
#X floatatom 456 289 5 0 0 0 - - -;
#X msg 532 237 1;
#X obj 537 263 /;
#X obj 532 213 t b f;
#X floatatom 537 289 5 0 0 0 - - -;
#X msg 621 237 1;
#X obj 626 263 /;
#X obj 621 213 t b f;
#X floatatom 626 289 5 0 0 0 - - -;
#X msg 1135 244 1;
#X obj 1140 270 /;
#X obj 1135 220 t b f;
#X floatatom 1140 296 5 0 0 0 - - -;
#X msg 1226 244 1;
#X obj 1231 270 /;
#X obj 1226 220 t b f;
#X floatatom 1231 296 5 0 0 0 - - -;
#X msg 1330 244 1;
#X obj 1335 270 /;
#X obj 1330 220 t b f;
#X floatatom 1335 296 5 0 0 0 - - -;
#X msg 1437 242 1;
#X obj 1442 268 /;
#X obj 1437 218 t b f;
#X floatatom 1442 294 5 0 0 0 - - -;
#X msg 1538 242 1;
#X obj 1543 268 /;
#X obj 1538 218 t b f;
#X floatatom 1543 294 5 0 0 0 - - -;
#X obj 1586 98 bng 15 250 50 0 empty empty empty 17 7 0 10 -262144
-1 -1;
#X obj 1585 68 loadbang;
#X obj 357 341 *;
#X floatatom 296 302 5 0 0 0 - - -;
#X obj 438 340 *;
#X obj 520 341 *;
#X obj 607 340 *;
#X obj 1123 346 *;
#X obj 1214 348 *;
#X obj 1317 349 *;
#X obj 1423 347 *;
#X obj 1529 346 *;
#X obj 296 163 vsl 15 128 0.01 20 1 0 empty empty empty 0 -9 0 10 -262144
-1 -1 3847 1;
#X obj 354 645 hsl 80 15 0 1 0 0 empty empty empty -2 -8 0 10 -262144
-1 -1 7900 1;
#X obj 442 645 hsl 80 15 0 1 0 0 empty empty empty -2 -8 0 10 -262144
-1 -1 7900 1;
#X obj 533 645 hsl 80 15 0 1 0 0 empty empty empty -2 -8 0 10 -262144
-1 -1 7900 1;
#X obj 623 645 hsl 80 15 0 1 0 0 empty empty empty -2 -8 0 10 -262144
-1 -1 7900 1;
#X obj 1646 251 * 365;
#X floatatom 1645 275 4 0 0 0 - - -;
#X floatatom 201 213 8 0 0 0 - - -;
#X msg 202 170 1;
#X obj 202 190 /;
#X obj 1305 384 phasor~;
#X obj 1224 384 phasor~;
#X obj 1142 382 phasor~;
#X obj 1393 386 phasor~;
#X obj 1144 424 snapshot~;
#X obj 1224 425 snapshot~;
#X floatatom 1141 612 5 0 0 0 - - -;
#X floatatom 1224 611 5 0 0 0 - - -;
#X obj 1311 426 snapshot~;
#X floatatom 1311 612 5 0 0 0 - - -;
#X obj 1393 426 snapshot~;
#X floatatom 1393 612 5 0 0 0 - - -;
#X obj 1132 645 hsl 80 15 0 1 0 0 empty empty empty -2 -8 0 10 -262144
-1 -1 7900 1;
#X obj 1223 645 hsl 80 15 0 1 0 0 empty empty empty -2 -8 0 10 -262144
-1 -1 7900 1;
#X obj 1312 645 hsl 80 15 0 1 0 0 empty empty empty -2 -8 0 10 -262144
-1 -1 7900 1;
#X obj 1404 645 hsl 80 15 0 1 0 0 empty empty empty -2 -8 0 10 -262144
-1 -1 7900 1;
#X obj 1484 386 phasor~;
#X obj 1485 426 snapshot~;
#X floatatom 1484 612 5 0 0 0 - - -;
#X obj 1494 645 hsl 80 15 0 1 0 0 empty empty empty -2 -8 0 10 -262144
-1 -1 7900 1;
#X floatatom 1584 422 8 0 0 0 - - -;
#X msg 1585 379 1;
#X obj 1585 399 /;
#X floatatom 205 402 8 0 0 0 - - -;
#X msg 206 359 1;
#X obj 206 379 /;
#X text 112 241 Earth orbit period (s);
#X floatatom 295 127 5 0 0 0 - - -;
#X text 98 302 # Earth years per second;
#X floatatom 635 858 5 0 0 0 - - -;
#X floatatom 779 854 5 0 0 0 - - -;
#X obj 779 877 t f f;
#N canvas 159 59 621 412 phaseAbsVal 0;
#X obj 180 135 < 0;
#X msg 144 125 1;
#X obj 144 147 -;
#X obj 144 104 t b f;
#X obj 144 183 spigot;
#X obj 194 159 tgl 15 0 empty empty empty 17 7 0 10 -262144 -1 -1 0
1;
#X obj 51 175 spigot;
#X obj 89 154 tgl 15 0 empty empty empty 17 7 0 10 -262144 -1 -1 1
1;
#X obj 89 133 >= 0;
#X text 224 126 if y is positive \, check positive angle if y is negative
\, check negative angle;
#X obj 49 48 inlet;
#X obj 227 45 inlet;
#X text 276 47 y positive or negative;
#X obj 99 255 outlet;
#X connect 0 0 4 1;
#X connect 0 0 5 0;
#X connect 1 0 2 0;
#X connect 2 0 4 0;
#X connect 3 0 1 0;
#X connect 3 1 2 1;
#X connect 4 0 13 0;
#X connect 6 0 13 0;
#X connect 8 0 6 1;
#X connect 8 0 7 0;
#X connect 10 0 3 0;
#X connect 10 0 6 0;
#X connect 11 0 0 0;
#X connect 11 0 8 0;
#X restore 635 1021 pd phaseAbsVal;
#X floatatom 635 991 5 0 0 0 - - -;
#X text 676 990 angle as phasor value from 0:1;
#X obj 635 962 / 360;
#X floatatom 635 932 5 0 0 0 - - -;
#X obj 633 1062 < 0.05;
#X obj 632 1098 tgl 15 0 empty empty empty 17 7 0 10 -262144 -1 -1
1 1;
#X text 699 1065 Sometimes the check may miss depending on the steps
size of the phasor at high rates. So \, if phase is less than n% just
use 0 value;
#X obj 632 1119 s useZeroCrossing;
#X obj 203 147 t b f;
#X obj 533 755 s EarthPhase;
#X obj 1646 227 r EarthPhase;
#X obj 544 994 s userAngle;
#X text 460 99 Earth days per each planet year;
#X obj 348 692 bng 25 50 20 0 empty empty empty 17 7 0 10 -262144 -1
-1;
#N canvas 306 246 450 300 angleFilt 0;
#X obj 190 117 sel 1;
#X obj 190 141 bng 15 50 20 0 empty empty empty 17 7 0 10 -262144 -1
-1;
#X obj 187 67 t f f;
#X obj 88 124 sel 1;
#X obj 88 148 bng 15 50 20 0 empty empty empty 17 7 0 10 -262144 -1
-1;
#X obj 87 93 change;
#X obj 106 41 r userAngle;
#X obj 222 146 r useZeroCrossing;
#X obj 184 173 spigot;
#X obj 122 174 sel 0 1;
#X msg 122 205 1;
#X msg 143 226 0;
#X obj 92 256 spigot;
#X obj 127 5 inlet;
#X obj 92 280 outlet;
#X obj 190 93 >;
#X obj 88 67 >=;
#X connect 0 0 1 0;
#X connect 1 0 8 0;
#X connect 2 0 15 1;
#X connect 2 1 15 0;
#X connect 3 0 4 0;
#X connect 4 0 12 0;
#X connect 5 0 3 0;
#X connect 6 0 16 1;
#X connect 7 0 8 1;
#X connect 7 0 9 0;
#X connect 8 0 14 0;
#X connect 9 0 10 0;
#X connect 9 1 11 0;
#X connect 10 0 12 1;
#X connect 11 0 12 1;
#X connect 12 0 14 0;
#X connect 13 0 2 0;
#X connect 13 0 16 0;
#X connect 15 0 0 0;
#X connect 16 0 5 0;
#X restore 348 662 pd angleFilt;
#X obj 439 693 bng 25 50 20 0 empty empty empty 17 7 0 10 -262144 -1
-1;
#N canvas 306 246 450 300 angleFilt 0;
#X obj 190 117 sel 1;
#X obj 190 141 bng 15 50 20 0 empty empty empty 17 7 0 10 -262144 -1
-1;
#X obj 187 67 t f f;
#X obj 88 124 sel 1;
#X obj 88 148 bng 15 50 20 0 empty empty empty 17 7 0 10 -262144 -1
-1;
#X obj 87 93 change;
#X obj 106 41 r userAngle;
#X obj 222 146 r useZeroCrossing;
#X obj 184 173 spigot;
#X obj 122 174 sel 0 1;
#X msg 122 205 1;
#X msg 143 226 0;
#X obj 92 256 spigot;
#X obj 127 5 inlet;
#X obj 92 280 outlet;
#X obj 88 67 <=;
#X obj 190 93 >;
#X connect 0 0 1 0;
#X connect 1 0 8 0;
#X connect 2 0 16 1;
#X connect 2 1 16 0;
#X connect 3 0 4 0;
#X connect 4 0 12 0;
#X connect 5 0 3 0;
#X connect 6 0 15 1;
#X connect 7 0 8 1;
#X connect 7 0 9 0;
#X connect 8 0 14 0;
#X connect 9 0 10 0;
#X connect 9 1 11 0;
#X connect 10 0 12 1;
#X connect 11 0 12 1;
#X connect 12 0 14 0;
#X connect 13 0 2 0;
#X connect 13 0 15 0;
#X connect 15 0 5 0;
#X connect 16 0 0 0;
#X restore 439 663 pd angleFilt;
#X obj 529 693 bng 25 50 20 0 empty empty empty 17 7 0 10 -262144 -1
-1;
#N canvas 306 246 450 300 angleFilt 0;
#X obj 190 117 sel 1;
#X obj 190 141 bng 15 50 20 0 empty empty empty 17 7 0 10 -262144 -1
-1;
#X obj 187 67 t f f;
#X obj 88 124 sel 1;
#X obj 88 148 bng 15 50 20 0 empty empty empty 17 7 0 10 -262144 -1
-1;
#X obj 87 93 change;
#X obj 106 41 r userAngle;
#X obj 222 146 r useZeroCrossing;
#X obj 184 173 spigot;
#X obj 122 174 sel 0 1;
#X msg 122 205 1;
#X msg 143 226 0;
#X obj 92 256 spigot;
#X obj 127 5 inlet;
#X obj 92 280 outlet;
#X obj 190 93 >;
#X obj 88 67 <=;
#X connect 0 0 1 0;
#X connect 1 0 8 0;
#X connect 2 0 15 1;
#X connect 2 1 15 0;
#X connect 3 0 4 0;
#X connect 4 0 12 0;
#X connect 5 0 3 0;
#X connect 6 0 16 1;
#X connect 7 0 8 1;
#X connect 7 0 9 0;
#X connect 8 0 14 0;
#X connect 9 0 10 0;
#X connect 9 1 11 0;
#X connect 10 0 12 1;
#X connect 11 0 12 1;
#X connect 12 0 14 0;
#X connect 13 0 2 0;
#X connect 13 0 16 0;
#X connect 15 0 0 0;
#X connect 16 0 5 0;
#X restore 529 663 pd angleFilt;
#X obj 620 694 bng 25 50 20 0 empty empty empty 17 7 0 10 -262144 -1
-1;
#N canvas 306 246 450 300 angleFilt 0;
#X obj 190 117 sel 1;
#X obj 190 141 bng 15 50 20 0 empty empty empty 17 7 0 10 -262144 -1
-1;
#X obj 187 67 t f f;
#X obj 88 124 sel 1;
#X obj 88 148 bng 15 50 20 0 empty empty empty 17 7 0 10 -262144 -1
-1;
#X obj 87 93 change;
#X obj 106 41 r userAngle;
#X obj 222 146 r useZeroCrossing;
#X obj 184 173 spigot;
#X obj 122 174 sel 0 1;
#X msg 122 205 1;
#X msg 143 226 0;
#X obj 92 256 spigot;
#X obj 127 5 inlet;
#X obj 92 280 outlet;
#X obj 89 67 <=;
#X obj 190 93 >;
#X connect 0 0 1 0;
#X connect 1 0 8 0;
#X connect 2 0 16 1;
#X connect 2 1 16 0;
#X connect 3 0 4 0;
#X connect 4 0 12 0;
#X connect 5 0 3 0;
#X connect 6 0 15 1;
#X connect 7 0 8 1;
#X connect 7 0 9 0;
#X connect 8 0 14 0;
#X connect 9 0 10 0;
#X connect 9 1 11 0;
#X connect 10 0 12 1;
#X connect 11 0 12 1;
#X connect 12 0 14 0;
#X connect 13 0 2 0;
#X connect 13 0 15 0;
#X connect 15 0 5 0;
#X connect 16 0 0 0;
#X restore 620 664 pd angleFilt;
#X obj 1130 694 bng 25 50 20 0 empty empty empty 17 7 0 10 -262144
-1 -1;
#N canvas 306 246 450 300 angleFilt 0;
#X obj 190 117 sel 1;
#X obj 190 141 bng 15 50 20 0 empty empty empty 17 7 0 10 -262144 -1
-1;
#X obj 187 67 t f f;
#X obj 88 124 sel 1;
#X obj 88 148 bng 15 50 20 0 empty empty empty 17 7 0 10 -262144 -1
-1;
#X obj 87 93 change;
#X obj 106 41 r userAngle;
#X obj 222 146 r useZeroCrossing;
#X obj 184 173 spigot;
#X obj 122 174 sel 0 1;
#X msg 122 205 1;
#X msg 143 226 0;
#X obj 92 256 spigot;
#X obj 127 5 inlet;
#X obj 92 280 outlet;
#X obj 87 67 <=;
#X obj 190 93 >;
#X connect 0 0 1 0;
#X connect 1 0 8 0;
#X connect 2 0 16 1;
#X connect 2 1 16 0;
#X connect 3 0 4 0;
#X connect 4 0 12 0;
#X connect 5 0 3 0;
#X connect 6 0 15 1;
#X connect 7 0 8 1;
#X connect 7 0 9 0;
#X connect 8 0 14 0;
#X connect 9 0 10 0;
#X connect 9 1 11 0;
#X connect 10 0 12 1;
#X connect 11 0 12 1;
#X connect 12 0 14 0;
#X connect 13 0 2 0;
#X connect 13 0 15 0;
#X connect 15 0 5 0;
#X connect 16 0 0 0;
#X restore 1130 664 pd angleFilt;
#X obj 1221 695 bng 25 50 20 0 empty empty empty 17 7 0 10 -262144
-1 -1;
#N canvas 306 246 450 300 angleFilt 0;
#X obj 190 117 sel 1;
#X obj 190 141 bng 15 50 20 0 empty empty empty 17 7 0 10 -262144 -1
-1;
#X obj 187 67 t f f;
#X obj 88 124 sel 1;
#X obj 88 148 bng 15 50 20 0 empty empty empty 17 7 0 10 -262144 -1
-1;
#X obj 87 93 change;
#X obj 106 41 r userAngle;
#X obj 222 146 r useZeroCrossing;
#X obj 184 173 spigot;
#X obj 122 174 sel 0 1;
#X msg 122 205 1;
#X msg 143 226 0;
#X obj 92 256 spigot;
#X obj 127 5 inlet;
#X obj 92 280 outlet;
#X obj 190 92 >;
#X obj 88 67 <=;
#X connect 0 0 1 0;
#X connect 1 0 8 0;
#X connect 2 0 15 1;
#X connect 2 1 15 0;
#X connect 3 0 4 0;
#X connect 4 0 12 0;
#X connect 5 0 3 0;
#X connect 6 0 16 1;
#X connect 7 0 8 1;
#X connect 7 0 9 0;
#X connect 8 0 14 0;
#X connect 9 0 10 0;
#X connect 9 1 11 0;
#X connect 10 0 12 1;
#X connect 11 0 12 1;
#X connect 12 0 14 0;
#X connect 13 0 2 0;
#X connect 13 0 16 0;
#X connect 15 0 0 0;
#X connect 16 0 5 0;
#X restore 1221 665 pd angleFilt;
#X obj 1311 695 bng 25 50 20 0 empty empty empty 17 7 0 10 -262144
-1 -1;
#N canvas 306 246 450 300 angleFilt 0;
#X obj 190 117 sel 1;
#X obj 190 141 bng 15 50 20 0 empty empty empty 17 7 0 10 -262144 -1
-1;
#X obj 187 67 t f f;
#X obj 88 124 sel 1;
#X obj 88 148 bng 15 50 20 0 empty empty empty 17 7 0 10 -262144 -1
-1;
#X obj 87 93 change;
#X obj 106 41 r userAngle;
#X obj 222 146 r useZeroCrossing;
#X obj 184 173 spigot;
#X obj 122 174 sel 0 1;
#X msg 122 205 1;
#X msg 143 226 0;
#X obj 92 256 spigot;
#X obj 127 5 inlet;
#X obj 92 280 outlet;
#X obj 190 93 >;
#X obj 88 67 <=;
#X connect 0 0 1 0;
#X connect 1 0 8 0;
#X connect 2 0 15 1;
#X connect 2 1 15 0;
#X connect 3 0 4 0;
#X connect 4 0 12 0;
#X connect 5 0 3 0;
#X connect 6 0 16 1;
#X connect 7 0 8 1;
#X connect 7 0 9 0;
#X connect 8 0 14 0;
#X connect 9 0 10 0;
#X connect 9 1 11 0;
#X connect 10 0 12 1;
#X connect 11 0 12 1;
#X connect 12 0 14 0;
#X connect 13 0 2 0;
#X connect 13 0 16 0;
#X connect 15 0 0 0;
#X connect 16 0 5 0;
#X restore 1311 665 pd angleFilt;
#X obj 1402 696 bng 25 50 20 0 empty empty empty 17 7 0 10 -262144
-1 -1;
#N canvas 306 246 450 300 angleFilt 0;
#X obj 190 117 sel 1;
#X obj 190 141 bng 15 50 20 0 empty empty empty 17 7 0 10 -262144 -1
-1;
#X obj 187 67 t f f;
#X obj 88 124 sel 1;
#X obj 88 148 bng 15 50 20 0 empty empty empty 17 7 0 10 -262144 -1
-1;
#X obj 87 93 change;
#X obj 106 41 r userAngle;
#X obj 222 146 r useZeroCrossing;
#X obj 184 173 spigot;
#X obj 122 174 sel 0 1;
#X msg 122 205 1;
#X msg 143 226 0;
#X obj 92 256 spigot;
#X obj 127 5 inlet;
#X obj 92 280 outlet;
#X obj 190 93 >;
#X obj 88 67 <=;
#X connect 0 0 1 0;
#X connect 1 0 8 0;
#X connect 2 0 15 1;
#X connect 2 1 15 0;
#X connect 3 0 4 0;
#X connect 4 0 12 0;
#X connect 5 0 3 0;
#X connect 6 0 16 1;
#X connect 7 0 8 1;
#X connect 7 0 9 0;
#X connect 8 0 14 0;
#X connect 9 0 10 0;
#X connect 9 1 11 0;
#X connect 10 0 12 1;
#X connect 11 0 12 1;
#X connect 12 0 14 0;
#X connect 13 0 2 0;
#X connect 13 0 16 0;
#X connect 15 0 0 0;
#X connect 16 0 5 0;
#X restore 1402 666 pd angleFilt;
#X obj 1492 696 bng 25 50 20 0 empty empty empty 17 7 0 10 -262144
-1 -1;
#N canvas 306 246 450 300 angleFilt 0;
#X obj 190 117 sel 1;
#X obj 190 141 bng 15 50 20 0 empty empty empty 17 7 0 10 -262144 -1
-1;
#X obj 187 67 t f f;
#X obj 88 124 sel 1;
#X obj 88 148 bng 15 50 20 0 empty empty empty 17 7 0 10 -262144 -1
-1;
#X obj 87 93 change;
#X obj 106 41 r userAngle;
#X obj 222 146 r useZeroCrossing;
#X obj 184 173 spigot;
#X obj 122 174 sel 0 1;
#X msg 122 205 1;
#X msg 143 226 0;
#X obj 92 256 spigot;
#X obj 127 5 inlet;
#X obj 92 280 outlet;
#X obj 190 93 >;
#X obj 88 67 <=;
#X connect 0 0 1 0;
#X connect 1 0 8 0;
#X connect 2 0 15 1;
#X connect 2 1 15 0;
#X connect 3 0 4 0;
#X connect 4 0 12 0;
#X connect 5 0 3 0;
#X connect 6 0 16 1;
#X connect 7 0 8 1;
#X connect 7 0 9 0;
#X connect 8 0 14 0;
#X connect 9 0 10 0;
#X connect 9 1 11 0;
#X connect 10 0 12 1;
#X connect 11 0 12 1;
#X connect 12 0 14 0;
#X connect 13 0 2 0;
#X connect 13 0 16 0;
#X connect 15 0 0 0;
#X connect 16 0 5 0;
#X restore 1492 666 pd angleFilt;
#X obj 354 627 hsl 80 15 0 1 0 0 empty empty empty -2 -8 0 10 -262144
-1 -1 0 1;
#X obj 442 627 hsl 80 15 0 1 0 0 empty empty empty -2 -8 0 10 -262144
-1 -1 0 1;
#X obj 531 627 hsl 80 15 0 1 0 0 empty empty empty -2 -8 0 10 -262144
-1 -1 0 1;
#X obj 623 627 hsl 80 15 0 1 0 0 empty empty empty -2 -8 0 10 -262144
-1 -1 0 1;
#X obj 1132 627 hsl 80 15 0 1 0 0 empty empty empty -2 -8 0 10 -262144
-1 -1 0 1;
#X obj 1223 627 hsl 80 15 0 1 0 0 empty empty empty -2 -8 0 10 -262144
-1 -1 0 1;
#X obj 1312 627 hsl 80 15 0 1 0 0 empty empty empty -2 -8 0 10 -262144
-1 -1 0 1;
#X obj 1404 627 hsl 80 15 0 1 0 0 empty empty empty -2 -8 0 10 -262144
-1 -1 0 1;
#X obj 1494 627 hsl 80 15 0 1 0 0 empty empty empty -2 -8 0 10 -262144
-1 -1 0 1;
#X obj 1603 607 r userAngle;
#X text 677 857 x;
#X text 1449 121 y;
#N canvas 0 25 1105 776 calculateUserAngle 0;
#X obj 129 80 inlet;
#X obj 241 80 inlet;
#X text 240 163 https://www.mathsisfun.com/polar-cartesian-coordinates.html
theta = tan^-1 (y/x);
#X obj 161 274 atan2;
#X floatatom 142 199 5 0 0 0 - - -;
#X floatatom 139 163 5 0 0 0 - - -;
#X obj 161 321 * 180;
#X obj 161 345 /;
#X obj 204 246 t b f;
#X obj 190 421 sel 0 1;
#X obj 163 475 +;
#X msg 190 445 0;
#X obj 190 397 < 0;
#X msg 227 445 360;
#X obj 161 369 t f f;
#X text 185 162 x;
#X text 188 200 y;
#X text 247 418 quadrant 1/ 2 or 3/ 4?;
#X text 129 57 x;
#X text 239 56 y;
#X obj 164 581 outlet;
#X obj 244 300 r pi;
#X connect 0 0 5 0;
#X connect 1 0 4 0;
#X connect 3 0 6 0;
#X connect 4 0 3 0;
#X connect 5 0 8 0;
#X connect 6 0 7 0;
#X connect 7 0 14 0;
#X connect 8 0 4 0;
#X connect 8 1 3 1;
#X connect 9 0 11 0;
#X connect 9 1 13 0;
#X connect 10 0 20 0;
#X connect 11 0 10 1;
#X connect 12 0 9 0;
#X connect 13 0 10 1;
#X connect 14 0 10 0;
#X connect 14 1 12 0;
#X connect 21 0 7 1;
#X restore 635 907 pd calculateUserAngle;
#X text 25 401 mercury orbit period (s);
#X text 1580 441 Pluto orbit period (s);
#X text 346 727 Mercury;
#X text 435 729 Venus;
#X text 521 731 Earth;
#X text 617 731 Mars;
#X text 1122 733 Jupiter;
#X text 1215 734 Saturn;
#X text 1304 733 Uranus;
#X text 1395 736 Neptune;
#X text 1490 737 Pluto;
#X text 1681 277 Earth days;
#X text 823 878 User Coordinates;
#X obj 286 342 loadbang;
#X obj 296 79 loadbang;
#X obj 169 43 r orbitSpeed;
#X obj 300 394 metro 30;
#X obj 153 573 s orbitAngleList;
#X msg 780 826 0;
#X msg 634 828 0;
#X obj 632 803 loadbang;
#N canvas 0 25 450 300 *pi*2 0;
#X obj 176 109 *, f 4;
#X obj 202 61 r pi;
#X obj 202 85 * 2;
#X obj 160 26 inlet;
#X obj 176 133 outlet;
#X connect 0 0 4 0;
#X connect 1 0 2 0;
#X connect 2 0 0 1;
#X connect 3 0 0 0;
#X restore 390 528 pd *pi*2;
#N canvas 0 25 450 300 *pi*2 0;
#X obj 176 109 *, f 4;
#X obj 202 61 r pi;
#X obj 202 85 * 2;
#X obj 160 26 inlet;
#X obj 176 133 outlet;
#X connect 0 0 4 0;
#X connect 1 0 2 0;
#X connect 2 0 0 1;
#X connect 3 0 0 0;
#X restore 465 527 pd *pi*2;
#N canvas 0 25 450 300 *pi*2 0;
#X obj 176 109 *, f 4;
#X obj 202 61 r pi;
#X obj 202 85 * 2;
#X obj 160 26 inlet;
#X obj 176 133 outlet;
#X connect 0 0 4 0;
#X connect 1 0 2 0;
#X connect 2 0 0 1;
#X connect 3 0 0 0;
#X restore 555 530 pd *pi*2;
#N canvas 0 25 450 300 *pi*2 0;
#X obj 176 109 *, f 4;
#X obj 202 61 r pi;
#X obj 202 85 * 2;
#X obj 160 26 inlet;
#X obj 176 133 outlet;
#X connect 0 0 4 0;
#X connect 1 0 2 0;
#X connect 2 0 0 1;
#X connect 3 0 0 0;
#X restore 639 528 pd *pi*2;
#N canvas 0 25 450 300 *pi*2 0;
#X obj 176 109 *, f 4;
#X obj 202 61 r pi;
#X obj 202 85 * 2;
#X obj 160 26 inlet;
#X obj 176 133 outlet;
#X connect 0 0 4 0;
#X connect 1 0 2 0;
#X connect 2 0 0 1;
#X connect 3 0 0 0;
#X restore 1159 529 pd *pi*2;
#N canvas 0 25 450 300 *pi*2 0;
#X obj 176 109 *, f 4;
#X obj 202 61 r pi;
#X obj 202 85 * 2;
#X obj 160 26 inlet;
#X obj 176 133 outlet;
#X connect 0 0 4 0;
#X connect 1 0 2 0;
#X connect 2 0 0 1;
#X connect 3 0 0 0;
#X restore 1240 528 pd *pi*2;
#N canvas 0 25 450 300 *pi*2 0;
#X obj 176 109 *, f 4;
#X obj 202 61 r pi;
#X obj 202 85 * 2;
#X obj 160 26 inlet;
#X obj 176 133 outlet;
#X connect 0 0 4 0;
#X connect 1 0 2 0;
#X connect 2 0 0 1;
#X connect 3 0 0 0;
#X restore 1327 529 pd *pi*2;
#N canvas 0 25 450 300 *pi*2 0;
#X obj 176 109 *, f 4;
#X obj 202 61 r pi;
#X obj 202 85 * 2;
#X obj 160 26 inlet;
#X obj 176 133 outlet;
#X connect 0 0 4 0;
#X connect 1 0 2 0;
#X connect 2 0 0 1;
#X connect 3 0 0 0;
#X restore 1408 528 pd *pi*2;
#N canvas 0 25 450 300 *pi*2 0;
#X obj 176 109 *, f 4;
#X obj 202 61 r pi;
#X obj 202 85 * 2;
#X obj 160 26 inlet;
#X obj 176 133 outlet;
#X connect 0 0 4 0;
#X connect 1 0 2 0;
#X connect 2 0 0 1;
#X connect 3 0 0 0;
#X restore 1500 530 pd *pi*2;
#X msg 295 103 0.1;
#X obj 706 799 r userX;
#X obj 814 797 r userY;
#X obj 385 568 s mAngle;
#X obj 465 566 s vAngle;
#X obj 552 567 s eAngle;
#X obj 1158 569 s jAngle;
#X obj 1245 569 s sAngle;
#X obj 1327 572 s uAngle;
#X obj 1409 573 s nAngle;
#X obj 1501 571 s pAngle;
#X obj 633 567 s maAngle;
#N canvas 0 25 450 300 invert 0;
#X obj 231 72 inlet;
#X obj 231 96 t b f;
#X msg 221 123 1;
#X obj 240 164 -;
#X obj 240 188 outlet;
#X connect 0 0 1 0;
#X connect 1 0 2 0;
#X connect 1 1 3 1;
#X connect 2 0 3 0;
#X connect 3 0 4 0;
#X restore 368 447 pd invert;
#N canvas 0 25 450 300 invert 0;
#X obj 231 72 inlet;
#X obj 231 96 t b f;
#X msg 221 123 1;
#X obj 240 164 -;
#X obj 240 188 outlet;
#X connect 0 0 1 0;
#X connect 1 0 2 0;
#X connect 1 1 3 1;
#X connect 2 0 3 0;
#X connect 3 0 4 0;
#X restore 450 448 pd invert;
#N canvas 0 25 450 300 invert 0;
#X obj 231 72 inlet;
#X obj 231 96 t b f;
#X msg 221 123 1;
#X obj 240 164 -;
#X obj 240 188 outlet;
#X connect 0 0 1 0;
#X connect 1 0 2 0;
#X connect 1 1 3 1;
#X connect 2 0 3 0;
#X connect 3 0 4 0;
#X restore 536 450 pd invert;
#N canvas 0 25 450 300 invert 0;
#X obj 231 72 inlet;
#X obj 231 96 t b f;
#X msg 221 123 1;
#X obj 240 164 -;
#X obj 240 188 outlet;
#X connect 0 0 1 0;
#X connect 1 0 2 0;
#X connect 1 1 3 1;
#X connect 2 0 3 0;
#X connect 3 0 4 0;
#X restore 618 451 pd invert;
#N canvas 0 25 450 300 invert 0;
#X obj 231 72 inlet;
#X obj 231 96 t b f;
#X msg 221 123 1;
#X obj 240 164 -;
#X obj 240 188 outlet;
#X connect 0 0 1 0;
#X connect 1 0 2 0;
#X connect 1 1 3 1;
#X connect 2 0 3 0;
#X connect 3 0 4 0;
#X restore 1143 447 pd invert;
#N canvas 0 25 450 300 invert 0;
#X obj 231 72 inlet;
#X obj 231 96 t b f;
#X msg 221 123 1;
#X obj 240 164 -;
#X obj 240 188 outlet;
#X connect 0 0 1 0;
#X connect 1 0 2 0;
#X connect 1 1 3 1;
#X connect 2 0 3 0;
#X connect 3 0 4 0;
#X restore 1225 448 pd invert;
#N canvas 0 25 450 300 invert 0;
#X obj 231 72 inlet;
#X obj 231 96 t b f;
#X msg 221 123 1;
#X obj 240 164 -;
#X obj 240 188 outlet;
#X connect 0 0 1 0;
#X connect 1 0 2 0;
#X connect 1 1 3 1;
#X connect 2 0 3 0;
#X connect 3 0 4 0;
#X restore 1312 450 pd invert;
#N canvas 0 25 450 300 invert 0;
#X obj 231 72 inlet;
#X obj 231 96 t b f;
#X msg 221 123 1;
#X obj 240 164 -;
#X obj 240 188 outlet;
#X connect 0 0 1 0;
#X connect 1 0 2 0;
#X connect 1 1 3 1;
#X connect 2 0 3 0;
#X connect 3 0 4 0;
#X restore 1394 451 pd invert;
#N canvas 0 25 450 300 invert 0;
#X obj 231 72 inlet;
#X obj 231 96 t b f;
#X msg 221 123 1;
#X obj 240 164 -;
#X obj 240 188 outlet;
#X connect 0 0 1 0;
#X connect 1 0 2 0;
#X connect 1 1 3 1;
#X connect 2 0 3 0;
#X connect 3 0 4 0;
#X restore 1485 450 pd invert;
#N canvas 0 25 450 300 rPhase 0;
#X obj 258 103 loadbang;
#X obj 258 127 random 100;
#X obj 258 151 / 100;
#X obj 258 175 outlet;
#X connect 0 0 1 0;
#X connect 1 0 2 0;
#X connect 2 0 3 0;
#X restore 378 358 pd rPhase;
#N canvas 0 25 450 300 rPhase 0;
#X obj 258 103 loadbang;
#X obj 258 127 random 100;
#X obj 258 151 / 100;
#X obj 258 175 outlet;
#X connect 0 0 1 0;
#X connect 1 0 2 0;
#X connect 2 0 3 0;
#X restore 461 359 pd rPhase;
#N canvas 0 25 450 300 rPhase 0;
#X obj 258 103 loadbang;
#X obj 258 127 random 100;
#X obj 258 151 / 100;
#X obj 258 175 outlet;
#X connect 0 0 1 0;
#X connect 1 0 2 0;
#X connect 2 0 3 0;
#X restore 541 361 pd rPhase;
#N canvas 0 25 450 300 rPhase 0;
#X obj 258 103 loadbang;
#X obj 258 127 random 100;
#X obj 258 151 / 100;
#X obj 258 175 outlet;
#X connect 0 0 1 0;
#X connect 1 0 2 0;
#X connect 2 0 3 0;
#X restore 626 361 pd rPhase;
#N canvas 0 25 450 300 rPhase 0;
#X obj 258 103 loadbang;
#X obj 258 127 random 100;
#X obj 258 151 / 100;
#X obj 258 175 outlet;
#X connect 0 0 1 0;
#X connect 1 0 2 0;
#X connect 2 0 3 0;
#X restore 1145 358 pd rPhase;
#N canvas 0 25 450 300 rPhase 0;
#X obj 258 103 loadbang;
#X obj 258 127 random 100;
#X obj 258 151 / 100;
#X obj 258 175 outlet;
#X connect 0 0 1 0;
#X connect 1 0 2 0;
#X connect 2 0 3 0;
#X restore 1236 360 pd rPhase;
#N canvas 0 25 450 300 rPhase 0;
#X obj 258 103 loadbang;
#X obj 258 127 random 100;
#X obj 258 151 / 100;
#X obj 258 175 outlet;
#X connect 0 0 1 0;
#X connect 1 0 2 0;
#X connect 2 0 3 0;
#X restore 1321 360 pd rPhase;
#N canvas 0 25 450 300 rPhase 0;
#X obj 258 103 loadbang;
#X obj 258 127 random 100;
#X obj 258 151 / 100;
#X obj 258 175 outlet;
#X connect 0 0 1 0;
#X connect 1 0 2 0;
#X connect 2 0 3 0;
#X restore 1409 363 pd rPhase;
#N canvas 0 25 450 300 rPhase 0;
#X obj 258 103 loadbang;
#X obj 258 127 random 100;
#X obj 258 151 / 100;
#X obj 258 175 outlet;
#X connect 0 0 1 0;
#X connect 1 0 2 0;
#X connect 2 0 3 0;
#X restore 1504 363 pd rPhase;
#N canvas 0 25 1440 511 trojanAngles 0;
#X obj 418 113 + 0.166667;
#X obj 267 124 - 0.166667;
#X obj 378 133 > 1;
#X floatatom 451 134 5 0 0 0 - - -;
#X floatatom 297 152 5 0 0 0 - - -;
#X obj 408 178 spigot;
#X obj 408 202 - 1;
#X obj 460 178 spigot;
#X obj 378 157 == 0;
#X obj 267 154 < 0;
#X obj 228 177 spigot;
#X obj 280 179 == 0;
#X obj 281 206 spigot;
#X obj 228 201 + 1;
#X obj 262 236 outlet;
#X obj 410 229 outlet;
#X obj 381 30 inlet;
#X connect 0 0 2 0;
#X connect 0 0 3 0;
#X connect 0 0 5 0;
#X connect 0 0 7 0;
#X connect 1 0 4 0;
#X connect 1 0 9 0;
#X connect 1 0 10 0;
#X connect 1 0 12 0;
#X connect 2 0 5 1;
#X connect 2 0 8 0;
#X connect 5 0 6 0;
#X connect 6 0 15 0;
#X connect 7 0 15 0;
#X connect 8 0 7 1;
#X connect 9 0 10 1;
#X connect 9 0 11 0;
#X connect 10 0 13 0;
#X connect 11 0 12 1;
#X connect 12 0 14 0;
#X connect 13 0 14 0;
#X connect 16 0 0 0;
#X connect 16 0 1 0;
#X restore 1154 469 pd trojanAngles;
#N canvas 0 25 450 300 *pi*2 0;
#X obj 176 109 *, f 4;
#X obj 202 61 r pi;
#X obj 202 85 * 2;
#X obj 160 26 inlet;
#X obj 176 133 outlet;
#X connect 0 0 4 0;
#X connect 1 0 2 0;
#X connect 2 0 0 1;
#X connect 3 0 0 0;
#X restore 1155 491 pd *pi*2;
#N canvas 0 25 450 300 *pi*2 0;
#X obj 176 109 *, f 4;
#X obj 202 61 r pi;
#X obj 202 85 * 2;
#X obj 160 26 inlet;
#X obj 176 133 outlet;
#X connect 0 0 4 0;
#X connect 1 0 2 0;
#X connect 2 0 0 1;
#X connect 3 0 0 0;
#X restore 1258 492 pd *pi*2;
#X obj 742 163 / 365;
#X floatatom 742 194 5 0 0 0 - - -;
#X obj 739 392 phasor~;
#X obj 739 433 snapshot~;
#X floatatom 741 602 5 0 0 0 - - -;
#X msg 741 243 1;
#X obj 746 269 /;
#X obj 741 219 t b f;
#X floatatom 746 295 5 0 0 0 - - -;
#X obj 727 346 *;
#X obj 743 651 hsl 80 15 0 1 0 0 empty empty empty -2 -8 0 10 -262144
-1 -1 7900 1;
#X obj 740 700 bng 25 50 20 0 empty empty empty 17 7 0 10 -262144 -1
-1;
#N canvas 306 246 450 300 angleFilt 0;
#X obj 190 117 sel 1;
#X obj 190 141 bng 15 50 20 0 empty empty empty 17 7 0 10 -262144 -1
-1;
#X obj 187 67 t f f;
#X obj 88 124 sel 1;
#X obj 88 148 bng 15 50 20 0 empty empty empty 17 7 0 10 -262144 -1
-1;
#X obj 87 93 change;
#X obj 106 41 r userAngle;
#X obj 222 146 r useZeroCrossing;
#X obj 184 173 spigot;
#X obj 122 174 sel 0 1;
#X msg 122 205 1;
#X msg 143 226 0;
#X obj 92 256 spigot;
#X obj 127 5 inlet;
#X obj 92 280 outlet;
#X obj 89 67 <=;
#X obj 190 93 >;
#X connect 0 0 1 0;
#X connect 1 0 8 0;
#X connect 2 0 16 1;
#X connect 2 1 16 0;
#X connect 3 0 4 0;
#X connect 4 0 12 0;
#X connect 5 0 3 0;
#X connect 6 0 15 1;
#X connect 7 0 8 1;
#X connect 7 0 9 0;
#X connect 8 0 14 0;
#X connect 9 0 10 0;
#X connect 9 1 11 0;
#X connect 10 0 12 1;
#X connect 11 0 12 1;
#X connect 12 0 14 0;
#X connect 13 0 2 0;
#X connect 13 0 15 0;
#X connect 15 0 5 0;
#X connect 16 0 0 0;
#X restore 740 670 pd angleFilt;
#X obj 743 633 hsl 80 15 0 1 0 0 empty empty empty -2 -8 0 10 -262144
-1 -1 0 1;
#N canvas 0 25 450 300 *pi*2 0;
#X obj 176 109 *, f 4;
#X obj 202 61 r pi;
#X obj 202 85 * 2;
#X obj 160 26 inlet;
#X obj 176 133 outlet;
#X connect 0 0 4 0;
#X connect 1 0 2 0;
#X connect 2 0 0 1;
#X connect 3 0 0 0;
#X restore 755 521 pd *pi*2;
#X f 9;
#N canvas 0 25 450 300 invert 0;
#X obj 231 72 inlet;
#X obj 231 96 t b f;
#X msg 221 123 1;
#X obj 240 164 -;
#X obj 240 188 outlet;
#X connect 0 0 1 0;
#X connect 1 0 2 0;
#X connect 1 1 3 1;
#X connect 2 0 3 0;
#X connect 3 0 4 0;
#X restore 738 457 pd invert;
#N canvas 0 25 450 300 rPhase 0;
#X obj 258 103 loadbang;
#X obj 258 127 random 100;
#X obj 258 151 / 100;
#X obj 258 175 outlet;
#X connect 0 0 1 0;
#X connect 1 0 2 0;
#X connect 2 0 3 0;
#X restore 746 367 pd rPhase;
#X msg 742 132 1642;
#X text 784 130 365 * 4.5 years;
#X text 737 737 asteroid;
#X obj 1785 155 / 365;
#X floatatom 1785 186 5 0 0 0 - - -;
#X obj 1782 384 phasor~;
#X obj 1782 425 snapshot~;
#X floatatom 1784 594 5 0 0 0 - - -;
#X msg 1784 235 1;
#X obj 1789 261 /;
#X obj 1784 211 t b f;
#X floatatom 1789 287 5 0 0 0 - - -;
#X obj 1770 338 *;
#X obj 1786 643 hsl 80 15 0 1 0 0 empty empty empty -2 -8 0 10 -262144
-1 -1 7900 1;
#X obj 1783 692 bng 25 50 20 0 empty empty empty 17 7 0 10 -262144
-1 -1;
#N canvas 306 246 450 300 angleFilt 0;
#X obj 190 117 sel 1;
#X obj 190 141 bng 15 50 20 0 empty empty empty 17 7 0 10 -262144 -1
-1;
#X obj 187 67 t f f;
#X obj 88 124 sel 1;
#X obj 88 148 bng 15 50 20 0 empty empty empty 17 7 0 10 -262144 -1
-1;
#X obj 87 93 change;
#X obj 106 41 r userAngle;
#X obj 222 146 r useZeroCrossing;
#X obj 184 173 spigot;
#X obj 122 174 sel 0 1;
#X msg 122 205 1;
#X msg 143 226 0;
#X obj 92 256 spigot;
#X obj 127 5 inlet;
#X obj 92 280 outlet;
#X obj 89 67 <=;
#X obj 190 93 >;
#X connect 0 0 1 0;
#X connect 1 0 8 0;
#X connect 2 0 16 1;
#X connect 2 1 16 0;
#X connect 3 0 4 0;
#X connect 4 0 12 0;
#X connect 5 0 3 0;
#X connect 6 0 15 1;
#X connect 7 0 8 1;
#X connect 7 0 9 0;
#X connect 8 0 14 0;
#X connect 9 0 10 0;
#X connect 9 1 11 0;
#X connect 10 0 12 1;
#X connect 11 0 12 1;
#X connect 12 0 14 0;
#X connect 13 0 2 0;
#X connect 13 0 15 0;
#X connect 15 0 5 0;
#X connect 16 0 0 0;
#X restore 1783 662 pd angleFilt;
#X obj 1786 625 hsl 80 15 0 1 0 0 empty empty empty -2 -8 0 10 -262144
-1 -1 0 1;
#N canvas 0 25 450 300 *pi*2 0;
#X obj 176 109 *, f 4;
#X obj 202 61 r pi;
#X obj 202 85 * 2;
#X obj 160 26 inlet;
#X obj 176 133 outlet;
#X connect 0 0 4 0;
#X connect 1 0 2 0;
#X connect 2 0 0 1;
#X connect 3 0 0 0;
#X restore 1798 513 pd *pi*2;
#X f 9;
#N canvas 0 25 450 300 invert 0;
#X obj 231 72 inlet;
#X obj 231 96 t b f;
#X msg 221 123 1;
#X obj 240 164 -;
#X obj 240 188 outlet;
#X connect 0 0 1 0;
#X connect 1 0 2 0;
#X connect 1 1 3 1;
#X connect 2 0 3 0;
#X connect 3 0 4 0;
#X restore 1781 449 pd invert;
#N canvas 0 25 450 300 rPhase 0;
#X obj 258 103 loadbang;
#X obj 258 127 random 100;
#X obj 258 151 / 100;
#X obj 258 175 outlet;
#X connect 0 0 1 0;
#X connect 1 0 2 0;
#X connect 2 0 3 0;
#X restore 1789 359 pd rPhase;
#X text 1780 729 asteroid;
#X obj 153 549 pack f f f f f f f f f f f f f;
#X text 1775 92 365 * 40 years;
#X msg 1785 124 104600;
#X connect 0 0 12 0;
#X connect 1 0 13 0;
#X connect 2 0 11 0;
#X connect 3 0 15 0;
#X connect 4 0 16 0;
#X connect 5 0 14 0;
#X connect 6 0 18 0;
#X connect 7 0 19 0;
#X connect 8 0 17 0;
#X connect 11 0 22 0;
#X connect 12 0 20 0;
#X connect 13 0 21 0;
#X connect 14 0 25 0;
#X connect 15 0 23 0;
#X connect 16 0 24 0;
#X connect 17 0 28 0;
#X connect 18 0 26 0;
#X connect 19 0 27 0;
#X connect 20 0 44 0;
#X connect 21 0 48 0;
#X connect 22 0 52 0;
#X connect 23 0 56 0;
#X connect 24 0 60 0;
#X connect 25 0 64 0;
#X connect 26 0 68 0;
#X connect 27 0 72 0;
#X connect 28 0 76 0;
#X connect 29 0 38 0;
#X connect 30 0 35 0;
#X connect 31 0 33 0;
#X connect 32 0 40 0;
#X connect 33 0 219 0;
#X connect 34 0 193 0;
#X connect 35 0 220 0;
#X connect 36 0 91 0;
#X connect 36 0 147 0;
#X connect 37 0 92 0;
#X connect 38 0 221 0;
#X connect 39 0 93 0;
#X connect 39 0 142 0;
#X connect 40 0 222 0;
#X connect 41 0 94 0;
#X connect 42 0 43 0;
#X connect 43 0 45 0;
#X connect 44 0 42 0;
#X connect 44 1 43 1;
#X connect 45 0 80 1;
#X connect 46 0 47 0;
#X connect 47 0 49 0;
#X connect 48 0 46 0;
#X connect 48 1 47 1;
#X connect 49 0 82 1;
#X connect 50 0 51 0;
#X connect 51 0 53 0;
#X connect 52 0 50 0;
#X connect 52 1 51 1;
#X connect 53 0 83 1;
#X connect 54 0 55 0;
#X connect 55 0 57 0;
#X connect 56 0 54 0;
#X connect 56 1 55 1;
#X connect 57 0 84 1;
#X connect 58 0 59 0;
#X connect 59 0 61 0;
#X connect 60 0 58 0;
#X connect 60 1 59 1;
#X connect 61 0 85 1;
#X connect 62 0 63 0;
#X connect 63 0 65 0;
#X connect 64 0 62 0;
#X connect 64 1 63 1;
#X connect 65 0 86 1;
#X connect 66 0 67 0;
#X connect 67 0 69 0;
#X connect 68 0 66 0;
#X connect 68 1 67 1;
#X connect 69 0 87 1;
#X connect 70 0 71 0;
#X connect 71 0 73 0;
#X connect 72 0 70 0;
#X connect 72 1 71 1;
#X connect 73 0 88 1;
#X connect 74 0 75 0;
#X connect 75 0 77 0;
#X connect 76 0 74 0;
#X connect 76 1 75 1;
#X connect 77 0 89 1;
#X connect 78 0 8 0;
#X connect 78 0 7 0;
#X connect 78 0 6 0;
#X connect 78 0 5 0;
#X connect 78 0 4 0;
#X connect 78 0 3 0;
#X connect 78 0 2 0;
#X connect 78 0 1 0;
#X connect 78 0 0 0;
#X connect 78 0 257 0;
#X connect 78 0 280 0;
#X connect 79 0 78 0;
#X connect 80 0 31 0;
#X connect 80 0 125 1;
#X connect 80 0 124 0;
#X connect 81 0 80 0;
#X connect 81 0 82 0;
#X connect 81 0 83 0;
#X connect 81 0 84 0;
#X connect 81 0 85 0;
#X connect 81 0 86 0;
#X connect 81 0 87 0;
#X connect 81 0 88 0;
#X connect 81 0 89 0;
#X connect 81 0 249 0;
#X connect 81 0 269 0;
#X connect 82 0 30 0;
#X connect 83 0 29 0;
#X connect 84 0 32 0;
#X connect 85 0 102 0;
#X connect 86 0 101 0;
#X connect 87 0 100 0;
#X connect 88 0 103 0;
#X connect 89 0 116 0;
#X connect 89 0 122 1;
#X connect 89 0 121 0;
#X connect 90 0 81 0;
#X connect 90 0 141 0;
#X connect 92 0 149 0;
#X connect 93 0 151 0;
#X connect 94 0 153 0;
#X connect 95 0 96 0;
#X connect 98 0 99 0;
#X connect 99 0 97 0;
#X connect 100 0 108 0;
#X connect 101 0 105 0;
#X connect 102 0 104 0;
#X connect 103 0 110 0;
#X connect 104 0 223 0;
#X connect 105 0 224 0;
#X connect 106 0 112 0;
#X connect 107 0 113 0;
#X connect 108 0 225 0;
#X connect 109 0 114 0;
#X connect 110 0 226 0;
#X connect 111 0 115 0;
#X connect 112 0 155 0;
#X connect 113 0 157 0;
#X connect 114 0 159 0;
#X connect 115 0 161 0;
#X connect 116 0 117 0;
#X connect 117 0 227 0;
#X connect 118 0 119 0;
#X connect 119 0 163 0;
#X connect 121 0 122 0;
#X connect 122 0 120 0;
#X connect 124 0 125 0;
#X connect 125 0 123 0;
#X connect 127 0 90 0;
#X connect 129 0 176 0;
#X connect 130 0 131 0;
#X connect 131 0 176 1;
#X connect 131 1 132 1;
#X connect 132 0 137 0;
#X connect 133 0 132 0;
#X connect 135 0 133 0;
#X connect 135 0 144 0;
#X connect 136 0 135 0;
#X connect 137 0 138 0;
#X connect 138 0 140 0;
#X connect 141 0 98 0;
#X connect 141 1 99 1;
#X connect 143 0 95 0;
#X connect 147 0 146 0;
#X connect 149 0 148 0;
#X connect 151 0 150 0;
#X connect 153 0 152 0;
#X connect 155 0 154 0;
#X connect 157 0 156 0;
#X connect 159 0 158 0;
#X connect 161 0 160 0;
#X connect 163 0 162 0;
#X connect 173 0 172 0;
#X connect 173 0 171 0;
#X connect 173 0 170 0;
#X connect 173 0 168 0;
#X connect 173 0 167 0;
#X connect 173 0 166 0;
#X connect 173 0 165 0;
#X connect 173 0 164 0;
#X connect 173 0 169 0;
#X connect 176 0 136 0;
#X connect 190 0 34 0;
#X connect 191 0 207 0;
#X connect 192 0 90 0;
#X connect 193 0 33 0;
#X connect 193 0 35 0;
#X connect 193 0 38 0;
#X connect 193 0 40 0;
#X connect 193 0 104 0;
#X connect 193 0 105 0;
#X connect 193 0 108 0;
#X connect 193 0 110 0;
#X connect 193 0 117 0;
#X connect 193 0 243 0;
#X connect 193 0 263 0;
#X connect 195 0 130 0;
#X connect 196 0 129 0;
#X connect 197 0 196 0;
#X connect 197 0 195 0;
#X connect 198 0 278 0;
#X connect 199 0 278 1;
#X connect 200 0 278 2;
#X connect 201 0 278 3;
#X connect 202 0 278 4;
#X connect 203 0 278 5;
#X connect 204 0 278 6;
#X connect 205 0 278 7;
#X connect 206 0 278 8;
#X connect 207 0 127 0;
#X connect 208 0 129 0;
#X connect 209 0 130 0;
#X connect 219 0 198 0;
#X connect 219 0 210 0;
#X connect 219 0 36 0;
#X connect 220 0 199 0;
#X connect 220 0 211 0;
#X connect 220 0 37 0;
#X connect 221 0 200 0;
#X connect 221 0 212 0;
#X connect 221 0 39 0;
#X connect 222 0 201 0;
#X connect 222 0 218 0;
#X connect 222 0 41 0;
#X connect 223 0 202 0;
#X connect 223 0 213 0;
#X connect 223 0 106 0;
#X connect 223 0 237 0;
#X connect 224 0 203 0;
#X connect 224 0 214 0;
#X connect 224 0 107 0;
#X connect 225 0 204 0;
#X connect 225 0 215 0;
#X connect 225 0 109 0;
#X connect 226 0 205 0;
#X connect 226 0 216 0;
#X connect 226 0 111 0;
#X connect 227 0 206 0;
#X connect 227 0 217 0;
#X connect 227 0 118 0;
#X connect 228 0 31 1;
#X connect 229 0 30 1;
#X connect 230 0 29 1;
#X connect 231 0 32 1;
#X connect 232 0 102 1;
#X connect 233 0 101 1;
#X connect 234 0 100 1;
#X connect 235 0 103 1;
#X connect 236 0 116 1;
#X connect 237 0 238 0;
#X connect 237 1 239 0;
#X connect 238 0 278 9;
#X connect 239 0 278 10;
#X connect 240 0 241 0;
#X connect 241 0 247 0;
#X connect 242 0 243 0;
#X connect 243 0 255 0;
#X connect 244 0 250 0;
#X connect 245 0 246 0;
#X connect 246 0 248 0;
#X connect 247 0 245 0;
#X connect 247 1 246 1;
#X connect 248 0 249 1;
#X connect 249 0 242 0;
#X connect 250 0 252 0;
#X connect 252 0 251 0;
#X connect 254 0 278 11;
#X connect 255 0 254 0;
#X connect 255 0 244 0;
#X connect 256 0 242 1;
#X connect 257 0 240 0;
#X connect 260 0 261 0;
#X connect 261 0 267 0;
#X connect 262 0 263 0;
#X connect 263 0 275 0;
#X connect 264 0 270 0;
#X connect 265 0 266 0;
#X connect 266 0 268 0;
#X connect 267 0 265 0;
#X connect 267 1 266 1;
#X connect 268 0 269 1;
#X connect 269 0 262 0;
#X connect 270 0 272 0;
#X connect 272 0 271 0;
#X connect 274 0 278 12;
#X connect 275 0 274 0;
#X connect 275 0 264 0;
#X connect 276 0 262 1;
#X connect 278 0 194 0;
#X connect 280 0 260 0;
#X restore 428 405 pd calculateOrbits;
#X connect 0 0 309 0;
#X connect 1 0 10 0;
#X connect 1 1 10 1;
#X connect 3 0 238 0;
#X connect 4 0 5 0;
#X connect 5 0 6 0;
#X connect 6 0 9 0;
#X connect 7 0 4 0;
#X connect 11 0 1 0;
#X connect 12 0 11 1;
#X connect 12 0 196 0;
#X connect 12 1 1 1;
#X connect 12 1 195 0;
#X connect 14 0 3 0;
#X connect 14 0 12 0;
#X connect 16 0 20 0;
#X connect 17 0 234 0;
#X connect 18 0 234 0;
#X connect 19 0 18 0;
#X connect 20 0 15 0;
#X connect 20 0 15 1;
#X connect 21 0 20 1;
#X connect 22 0 21 0;
#X connect 23 0 24 0;
#X connect 24 0 26 0;
#X connect 26 0 12 1;
#X connect 27 0 310 0;
#X connect 32 0 30 0;
#X connect 33 0 31 0;
#X connect 35 0 36 0;
#X connect 36 0 37 0;
#X connect 40 0 42 0;
#X connect 41 0 42 1;
#X connect 42 0 38 0;
#X connect 42 0 228 0;
#X connect 42 1 39 0;
#X connect 42 1 229 0;
#X connect 44 0 47 0;
#X connect 44 1 47 1;
#X connect 48 0 44 0;
#X connect 49 0 48 1;
#X connect 49 0 194 0;
#X connect 49 1 44 1;
#X connect 49 1 193 0;
#X connect 51 0 54 0;
#X connect 52 0 49 1;
#X connect 53 0 311 0;
#X connect 54 0 52 0;
#X connect 55 0 25 0;
#X connect 55 0 12 2;
#X connect 57 0 56 0;
#X connect 57 0 49 2;
#X connect 58 0 46 0;
#X connect 58 0 49 0;
#X connect 59 0 62 0;
#X connect 59 1 62 1;
#X connect 63 0 59 0;
#X connect 64 0 63 1;
#X connect 64 0 198 0;
#X connect 64 1 59 1;
#X connect 64 1 197 0;
#X connect 66 0 72 0;
#X connect 67 0 64 1;
#X connect 69 0 68 0;
#X connect 69 0 64 2;
#X connect 70 0 312 0;
#X connect 71 0 61 0;
#X connect 71 0 64 0;
#X connect 72 0 67 0;
#X connect 74 0 73 0;
#X connect 75 0 76 0;
#X connect 75 0 77 0;
#X connect 78 0 81 0;
#X connect 78 1 81 1;
#X connect 79 0 236 0;
#X connect 80 0 235 0;
#X connect 82 0 78 0;
#X connect 83 0 82 1;
#X connect 83 0 200 0;
#X connect 83 1 78 1;
#X connect 83 1 199 0;
#X connect 84 0 237 0;
#X connect 85 0 115 0;
#X connect 87 0 83 1;
#X connect 88 0 91 0;
#X connect 88 1 91 1;
#X connect 92 0 88 0;
#X connect 93 0 92 1;
#X connect 93 0 185 0;
#X connect 93 1 88 1;
#X connect 93 1 184 0;
#X connect 95 0 188 0;
#X connect 96 0 93 1;
#X connect 97 0 86 0;
#X connect 97 0 83 2;
#X connect 99 0 98 0;
#X connect 99 0 93 2;
#X connect 100 0 103 0;
#X connect 100 1 103 1;
#X connect 104 0 100 0;
#X connect 105 0 187 0;
#X connect 105 0 104 1;
#X connect 105 1 100 1;
#X connect 105 1 186 0;
#X connect 107 0 189 0;
#X connect 108 0 105 1;
#X connect 110 0 109 0;
#X connect 110 0 105 2;
#X connect 111 0 313 0;
#X connect 112 0 80 0;
#X connect 112 0 83 0;
#X connect 113 0 316 0;
#X connect 114 0 319 0;
#X connect 115 0 87 0;
#X connect 116 0 118 0;
#X connect 116 1 118 1;
#X connect 119 0 116 0;
#X connect 120 0 119 1;
#X connect 120 0 215 0;
#X connect 120 1 116 1;
#X connect 120 1 214 0;
#X connect 121 0 190 0;
#X connect 123 0 120 1;
#X connect 124 0 126 0;
#X connect 124 1 126 1;
#X connect 127 0 124 0;
#X connect 128 0 127 1;
#X connect 128 0 219 0;
#X connect 128 1 124 1;
#X connect 129 0 191 0;
#X connect 130 0 128 1;
#X connect 131 0 122 0;
#X connect 131 0 120 2;
#X connect 132 0 218 0;
#X connect 133 0 132 0;
#X connect 133 0 128 2;
#X connect 134 0 136 0;
#X connect 134 1 136 1;
#X connect 137 0 134 0;
#X connect 138 0 137 1;
#X connect 138 0 223 0;
#X connect 138 1 134 1;
#X connect 139 0 192 0;
#X connect 140 0 138 1;
#X connect 141 0 222 0;
#X connect 142 0 141 0;
#X connect 142 0 138 2;
#X connect 143 0 320 0;
#X connect 144 0 321 0;
#X connect 145 0 135 0;
#X connect 145 0 138 0;
#X connect 146 0 125 0;
#X connect 146 0 128 0;
#X connect 147 0 117 0;
#X connect 147 0 120 0;
#X connect 148 0 329 0;
#X connect 150 0 161 0;
#X connect 151 0 152 0;
#X connect 153 0 162 0;
#X connect 154 0 163 0;
#X connect 155 0 165 0;
#X connect 156 0 164 0;
#X connect 157 0 166 0;
#X connect 158 0 167 0;
#X connect 159 0 168 0;
#X connect 160 0 289 0;
#X connect 169 0 160 0;
#X connect 170 0 158 0;
#X connect 171 0 159 0;
#X connect 172 0 157 0;
#X connect 173 0 156 0;
#X connect 174 0 155 0;
#X connect 175 0 154 0;
#X connect 176 0 153 0;
#X connect 177 0 151 0;
#X connect 178 0 150 0;
#X connect 179 0 317 0;
#X connect 179 1 318 0;
#X connect 181 0 183 0;
#X connect 182 0 181 0;
#X connect 184 0 89 0;
#X connect 185 0 94 0;
#X connect 186 0 101 0;
#X connect 187 0 106 0;
#X connect 188 0 96 0;
#X connect 189 0 108 0;
#X connect 190 0 123 0;
#X connect 191 0 130 0;
#X connect 192 0 140 0;
#X connect 193 0 45 0;
#X connect 194 0 50 0;
#X connect 195 0 2 0;
#X connect 196 0 13 0;
#X connect 197 0 60 0;
#X connect 198 0 65 0;
#X connect 199 0 79 0;
#X connect 200 0 84 0;
#X connect 214 0 212 0;
#X connect 215 0 213 0;
#X connect 218 0 216 0;
#X connect 219 0 217 0;
#X connect 222 0 220 0;
#X connect 223 0 221 0;
#X connect 224 0 90 0;
#X connect 224 0 93 0;
#X connect 225 0 102 0;
#X connect 225 0 105 0;
#X connect 226 0 40 0;
#X connect 227 0 41 0;
#X connect 230 0 180 0;
#X connect 231 0 232 0;
#X connect 231 0 251 0;
#X connect 232 0 230 1;
#X connect 232 0 239 1;
#X connect 234 0 16 1;
#X connect 239 0 180 1;
#X connect 242 0 241 0;
#X connect 243 0 242 1;
#X connect 243 0 244 1;
#X connect 244 0 241 1;
#X connect 245 0 247 0;
#X connect 246 0 245 0;
#X connect 248 0 323 0;
#X connect 248 1 324 0;
#X connect 252 0 314 0;
#X connect 253 0 255 0;
#X connect 254 0 253 0;
#X connect 256 0 259 0;
#X connect 256 0 260 0;
#X connect 257 0 265 0;
#X connect 258 0 276 0;
#X connect 260 0 257 0;
#X connect 260 1 258 0;
#X connect 261 0 263 0;
#X connect 261 1 263 1;
#X connect 264 0 261 0;
#X connect 265 0 264 1;
#X connect 265 0 269 0;
#X connect 265 1 261 1;
#X connect 265 1 268 0;
#X connect 267 0 270 0;
#X connect 267 0 282 0;
#X connect 268 0 262 0;
#X connect 269 0 266 0;
#X connect 270 0 265 1;
#X connect 271 0 315 0;
#X connect 272 0 274 0;
#X connect 272 1 274 1;
#X connect 275 0 272 0;
#X connect 276 0 275 1;
#X connect 276 0 280 0;
#X connect 276 1 272 1;
#X connect 276 1 279 0;
#X connect 278 0 281 0;
#X connect 278 0 283 0;
#X connect 279 0 273 0;
#X connect 280 0 277 0;
#X connect 281 0 276 1;
#X connect 282 0 265 2;
#X connect 283 0 276 2;
#X connect 284 0 243 0;
#X connect 284 0 249 0;
#X connect 287 0 288 0;
#X connect 288 0 286 0;
#X connect 290 0 292 0;
#X connect 291 0 293 0;
#X connect 294 0 290 0;
#X connect 294 1 291 0;
#X connect 295 0 296 0;
#X connect 295 0 294 0;
#X connect 297 0 294 1;
#X connect 298 0 297 0;
#X connect 298 0 304 0;
#X connect 299 0 300 0;
#X connect 300 0 295 0;
#X connect 301 0 302 0;
#X connect 303 0 301 0;
#X connect 304 0 295 0;
#X connect 305 0 322 0;
#X connect 307 0 308 0;
#X connect 309 0 16 0;
#X connect 310 0 11 0;
#X connect 311 0 48 0;
#X connect 312 0 63 0;
#X connect 313 0 82 0;
#X connect 314 0 264 0;
#X connect 315 0 275 0;
#X connect 316 0 92 0;
#X connect 317 0 230 0;
#X connect 318 0 239 0;
#X connect 319 0 104 0;
#X connect 320 0 119 0;
#X connect 321 0 127 0;
#X connect 322 0 137 0;
#X connect 323 0 242 0;
#X connect 324 0 244 0;
#X connect 326 0 325 0;
#X connect 329 0 74 0;
#X connect 330 0 331 0;
#X connect 332 0 333 0;
#X connect 334 0 335 0;
#X connect 335 0 330 0;
